<?xml version="1.0" encoding="UTF-8" standalone="no"?>
<!-- Generator: Adobe Illustrator 13.0.2, SVG Export Plug-In . SVG Version: 6.00 Build 14948)  -->

<svg
   xmlns:dc="http://purl.org/dc/elements/1.1/"
   xmlns:cc="http://creativecommons.org/ns#"
   xmlns:rdf="http://www.w3.org/1999/02/22-rdf-syntax-ns#"
   xmlns:svg="http://www.w3.org/2000/svg"
   xmlns="http://www.w3.org/2000/svg"
   xmlns:xlink="http://www.w3.org/1999/xlink"
   xmlns:sodipodi="http://sodipodi.sourceforge.net/DTD/sodipodi-0.dtd"
   xmlns:inkscape="http://www.inkscape.org/namespaces/inkscape"
   version="1.1"
   id="Layer_1"
   x="0px"
   y="0px"
   width="340.363px"
   height="100.828px"
   viewBox="0 0 340.363 100.828"
   style="enable-background:new 0 0 340.363 100.828;"
   xml:space="preserve"
   inkscape:version="0.47 r22583"
   sodipodi:docname="big_truck_01.svg"><metadata
   id="metadata389"><rdf:RDF><cc:Work
       rdf:about=""><dc:format>image/svg+xml</dc:format><dc:type
         rdf:resource="http://purl.org/dc/dcmitype/StillImage" /></cc:Work></rdf:RDF></metadata><defs
   id="defs387"><pattern
   inkscape:collect="always"
   xlink:href="#SVGID_1_"
   id="pattern3303"
   patternTransform="matrix(-1,0,0,-1,128.99077,-182.0957)" /><inkscape:perspective
   sodipodi:type="inkscape:persp3d"
   inkscape:vp_x="0 : 50.414001 : 1"
   inkscape:vp_y="0 : 1000 : 0"
   inkscape:vp_z="340.36301 : 50.414001 : 1"
   inkscape:persp3d-origin="170.1815 : 33.609334 : 1"
   id="perspective391" />
	
	
	
	
	
	
	
		
	
	
	
	
	
	
	
	
	
		
	
		
	
		
	
		
	
		
	
		
	
		
	
	
	
		
	
		
	
		
	
		
	
		
	
		
	
		
	
		
	
		
	
		
	
		
	
		
	
		
	
		
	
		
	
		
	
		
	
		
	
		
	
		
	
		
	
		
	
		
	
		
	
		
	
		
	
		
	
		
	
	
	
	
	
	
	
	
	
	
	
	
	
	
	
	
	
	
	
	
	
	
	
		
	
	
	
	
	
	
	<pattern
   patternTransform="matrix(1 0 0 -1 211.3735 -182.0957)"
   xlink:href="#Unnamed_Pattern"
   id="SVGID_1_">
	</pattern>
	
	
	
	
	
	
	
	
	
		
	
		
	
		
	
		
	
		
	
	
	
	
	
	
	
	
	
	
	
		
	
		
	
		
	
		
	
		
	
	
	
		
	
		
	
	
	
	
	
		
	
	
	
	
	
	
	
	
	
	
	
	
	
	
	
	
	
	
	
	
	
	
	
	
	
	
	
	
	
	
	
	
	
	
	
	
		
	
		
	
		
	
		
	
	
	
	
	
	
	
	
	
	
	
	
	
	
	
	
	
	
	
	
	
	
	
	
	
	
	
	
	
</defs><sodipodi:namedview
   pagecolor="#ffffff"
   bordercolor="#666666"
   borderopacity="1"
   objecttolerance="10"
   gridtolerance="10"
   guidetolerance="10"
   inkscape:pageopacity="0"
   inkscape:pageshadow="2"
   inkscape:window-width="1440"
   inkscape:window-height="825"
   id="namedview385"
   showgrid="false"
   inkscape:zoom="3.1437024"
   inkscape:cx="150.82238"
   inkscape:cy="50.414001"
   inkscape:window-x="0"
   inkscape:window-y="24"
   inkscape:window-maximized="1"
   inkscape:current-layer="Layer_1" />
<pattern
   x="-224.987"
   y="356.038"
   width="8"
   height="8"
   patternUnits="userSpaceOnUse"
   id="Unnamed_Pattern"
   viewBox="0.05 -8.05 8 8"
   style="overflow:visible;">
	<g
   id="g4">
		<polygon
   style="fill:none;"
   points="0.05,-8.05 8.05,-8.05 8.05,-0.05 0.05,-0.05   "
   id="polygon6" />
		<path
   style="fill:none;stroke:#000000;stroke-width:0.1;stroke-linecap:square;stroke-miterlimit:10;"
   d="M0.05-8.05h8 M8.05-0.05    h-8"
   id="path8" />
	</g>
</pattern>
<path
   id="path12"
   d="m 303.19527,85.554 c 0,-2.463 0,-4.927 0,-7.39 0,-0.141 0.004,-2.429 -0.004,-2.429 -0.731,0 -1.461,0 -2.192,0 -3.061,0 -6.122,0 -9.182,0 -0.731,0 -1.461,0 -2.192,0 -0.008,0 -0.004,2.288 -0.004,2.429 0,2.232 0,4.466 0,6.699 0,0.294 -0.156,0.69 0.183,0.69 0.671,0 1.342,0 2.013,0 3.792,0.001 7.585,0.001 11.378,0.001"
   style="fill-rule:evenodd" /><path
   id="path14"
   d="m 303.19527,85.554 c -4.52,0 -9.04,0 -13.559,0 -0.032,0 -0.016,-6.514 -0.016,-7.034 0,-0.926 0,-1.853 0,-2.779 0,-0.011 1.793,-0.005 1.901,-0.005 3.886,0 7.772,0 11.658,0 0.031,-0.001 0.016,8.878 0.016,9.818"
   style="fill:none;stroke:#000000;stroke-width:0.1212;stroke-linecap:square;stroke-miterlimit:10" /><path
   id="path16"
   d="m 313.37527,18.766 c 0,-0.754 0,-1.508 0,-2.262 0,-0.242 -1.522,-0.334 -1.697,-0.162 -0.242,0.238 0,1.892 0,2.262 0,0.349 1.358,0.162 1.697,0.162"
   style="fill-rule:evenodd" /><path
   id="path18"
   d="m 313.37527,18.766 c -0.339,0 -1.697,0.188 -1.697,-0.162 0,-0.371 -0.242,-2.024 0,-2.262 0.174,-0.172 1.697,-0.08 1.697,0.162 0,0.754 0,1.508 0,2.262"
   style="fill:none;stroke:#000000;stroke-width:0.1212;stroke-linecap:square;stroke-miterlimit:10" /><path
   id="path20"
   d="m 302.71027,18.402 c 0,-0.638 0,-1.277 0,-1.915 0,-0.099 0.076,-0.681 0,-0.751 -0.045,-0.042 -0.803,-0.042 -0.849,0 -0.197,0.182 0,1.635 0,1.915 0,0.858 -0.021,0.751 0.849,0.751"
   style="fill-rule:evenodd" /><path
   id="path22"
   d="m 302.71027,18.402 c -0.744,0 -0.849,0.167 -0.849,-0.576 0,-0.311 -0.215,-1.891 0,-2.09 0.096,-0.088 0.661,0 0.802,0 0.103,0 0.047,0.487 0.047,0.576 0,0.696 0,1.393 0,2.09"
   style="fill:none;stroke:#000000;stroke-width:0.1212;stroke-linecap:square;stroke-miterlimit:10" /><line
   id="line24"
   y2="36.220001"
   x2="269.98627"
   y1="21.554001"
   x1="269.98627"
   style="fill:none;stroke:#000000;stroke-width:0.1212;stroke-linecap:square;stroke-miterlimit:10" /><path
   id="path26"
   d="m 271.19727,20.826 c 0,-0.545 0.36,-2.182 -0.493,-2.182 -1.228,0 -2.456,0 -3.683,0 -0.269,0 -2.49,-0.257 -2.49,0.267 0,0.571 0,1.142 0,1.713 0,0.408 -0.647,0.606 -0.969,0.808 2.788,0 5.575,0 8.363,0 -0.246,-0.197 -0.505,-0.382 -0.728,-0.606"
   style="fill:#686868;fill-rule:evenodd" /><path
   id="path28"
   d="m 271.19727,20.826 c 0,-0.545 0.36,-2.182 -0.493,-2.182 -1.228,0 -2.456,0 -3.683,0 -0.269,0 -2.49,-0.257 -2.49,0.267 0,0.571 0,1.142 0,1.713 0,0.408 -0.647,0.606 -0.969,0.808 2.788,0 5.575,0 8.363,0 -0.202,-0.162 -0.404,-0.323 -0.606,-0.485"
   style="fill:none;stroke:#000000;stroke-width:0.1212;stroke-linecap:square;stroke-miterlimit:10" /><path
   id="path30"
   d="m 269.13727,36.463 c 0,-4.586 0,-9.171 0,-13.757 0,-2.85 0,-5.7 0,-8.55 0,-0.724 0,-1.447 0,-2.171 0,-0.583 -1.551,-0.249 -2.001,-0.249 -0.812,0 -1.029,-0.243 -1.029,0.518 0,0.853 0,1.705 0,2.557 0,2.963 0,5.927 0,8.89 0,3.041 0,6.081 0,9.121 0,0.948 0,1.897 0,2.845 0,0.522 -0.189,0.796 0.367,0.796 0.888,0 1.776,0 2.663,0"
   style="fill:#ffffff;fill-rule:evenodd" /><path
   id="path32"
   d="m 269.13727,36.463 c -0.294,0 -3.03,0.008 -3.03,-0.008 0,-0.468 0,-0.936 0,-1.404 0,-2.597 0,-5.195 0,-7.792 0,-5.118 0,-10.237 0,-15.355 0,-0.401 1.984,-0.168 2.359,-0.168 0.768,0 0.671,-0.053 0.671,0.65 0,2.283 0,4.566 0,6.849 0,5.526 0,11.053 0,16.579 0,0.216 0,0.432 0,0.649"
   style="fill:none;stroke:#000000;stroke-width:0.1212;stroke-linecap:square;stroke-miterlimit:10" /><path
   id="path34"
   d="m 278.34827,64.342 c -2.476,0 -4.952,0 -7.428,0 -0.66,0 -1.227,0.13 -1.772,-0.237 -1.197,-0.807 -2.394,-1.612 -3.59,-2.418 -0.287,-0.193 -1.996,-1.054 -1.996,-1.416 0,-0.98 0,-1.961 0,-2.941 0,-2.723 0,-5.445 0,-8.167 0,-0.606 0.969,-0.57 0.969,-1.204 0,-1.111 0,-2.222 0,-3.333 0,-2.773 0,-5.546 0,-8.318 0,-0.659 1.07,-0.329 1.607,-0.329 1.453,0 2.906,0 4.358,0 0.723,0 0.458,0.429 0.458,1.111 0,1.412 0,2.823 0,4.235 0,1.534 0,3.068 0,4.602 0,0.261 -0.192,1.788 0.031,1.954 1.053,0.782 2.105,1.564 3.158,2.346 0.348,0.259 0.697,0.518 1.045,0.776 0.254,0.189 1.311,0.006 1.622,0.006 0.092,0 1.417,-0.006 1.417,0.004 0.002,0.236 0.004,0.471 0.006,0.708 0.012,1.261 0.023,2.521 0.035,3.782 0.025,2.741 0.051,5.482 0.076,8.223 0.003,0.205 0.005,0.41 0.004,0.616"
   style="fill:#d40000;fill-opacity:1;fill-rule:evenodd" /><path
   id="path36"
   d="m 278.34827,64.342 c -2.476,0 -4.952,0 -7.428,0 -0.66,0 -1.227,0.13 -1.772,-0.237 -1.197,-0.807 -2.394,-1.612 -3.59,-2.418 -0.287,-0.193 -1.996,-1.054 -1.996,-1.416 0,-0.98 0,-1.961 0,-2.941 0,-2.723 0,-5.445 0,-8.167 0,-0.606 0.969,-0.57 0.969,-1.204 0,-1.111 0,-2.222 0,-3.333 0,-2.773 0,-5.546 0,-8.318 0,-0.659 1.07,-0.329 1.607,-0.329 1.453,0 2.906,0 4.358,0 0.723,0 0.458,0.429 0.458,1.111 0,1.412 0,2.823 0,4.235 0,1.534 0,3.068 0,4.602 0,0.261 -0.192,1.788 0.031,1.954 1.053,0.782 2.105,1.564 3.158,2.346 0.348,0.259 0.697,0.518 1.045,0.776 0.254,0.189 1.311,0.006 1.622,0.006 0.092,0 1.417,-0.006 1.417,0.004 0.002,0.236 0.004,0.471 0.006,0.708 0.012,1.261 0.023,2.521 0.035,3.782 0.025,2.741 0.051,5.482 0.076,8.223 0.001,0.125 0.002,0.249 0.003,0.374"
   style="fill:none;stroke:#000000;stroke-width:0.1212;stroke-linecap:square;stroke-miterlimit:10" /><path
   id="path38"
   d="m 268.65327,83.735 c 0,-4.826 0,-9.652 0,-14.479 0,-0.752 -0.151,-0.551 -0.869,-0.551 -1.22,0 -2.439,0 -3.659,0 -10.905,0 -21.81,0 -32.715,0 -11.781,0 -23.563,0 -35.345,0 -2.567,0 -5.134,0 -7.702,0 -0.453,0 -0.188,2.69 -0.188,3.097 0,3.105 0,6.212 0,9.317 0,0.477 -0.365,2.615 0.259,2.615 0.911,0 1.822,0 2.733,0 4.182,0 8.363,0 12.545,0 12.688,0 25.375,0 38.062,0 8.714,0 17.428,0 26.142,0 0.246,0.001 0.491,0.001 0.737,0.001"
   style="fill:#c1c1c1;fill-rule:evenodd" /><path
   id="path40"
   d="m 268.65327,83.735 c -6.876,0 -13.752,0 -20.628,0 -12.836,0 -25.673,0 -38.509,0 -7.11,0 -14.22,0 -21.329,0 -0.021,0 -0.011,-12.882 -0.011,-14.111 0,-0.93 -0.157,-0.918 0.694,-0.918 1.149,0 2.298,0 3.447,0 10.768,0 21.536,0 32.305,0 11.878,0 23.757,0 35.636,0 2.703,0 5.407,0 8.11,0 0.676,0 0.285,1.954 0.285,2.462 0,3.102 0,6.203 0,9.305 0,1.087 0,2.174 0,3.262"
   style="fill:none;stroke:#000000;stroke-width:0.1212;stroke-linecap:square;stroke-miterlimit:10" /><path
   id="path42"
   d="m 304.40627,84.1 c 0.163,-2.126 0.415,-4.307 1.212,-6.304 0.811,-2.033 2.018,-3.734 3.375,-5.431 1.233,-1.541 3.355,-2.816 5.109,-3.659 1.802,-0.866 4.193,-1.479 6.205,-1.312 2.255,0.188 4.336,0.583 6.34,1.675 1.893,1.031 3.677,2.339 5.028,4.028 2.609,3.263 4.266,7.56 3.94,11.79 -0.315,4.094 -1.812,8.507 -4.945,11.329 -3.387,3.051 -7.325,4.886 -11.957,4.5 -3.942,-0.328 -7.844,-2.54 -10.307,-5.616 -2.61,-3.259 -3.683,-6.882 -4,-11"
   style="fill-rule:evenodd;stroke:#ffffff;stroke-width:0.1212;stroke-linecap:square;stroke-miterlimit:10" /><line
   id="line44"
   y2="84.071999"
   x2="304.40628"
   y1="84.085999"
   x1="304.40628"
   style="fill:none;stroke:#000000;stroke-width:0.1212;stroke-linecap:square;stroke-miterlimit:10" /><path
   id="path46"
   d="m 312.16327,84.1 c 0.217,-1.956 0.667,-4.181 2.122,-5.638 1.619,-1.62 3.333,-2.458 5.618,-2.711 1.883,-0.209 4.126,0.942 5.411,2.229 1.549,1.551 2.314,3.507 2.554,5.665 0.458,4.129 -2.951,8.273 -7.02,8.729 -4.3,0.481 -8.102,-3.014 -8.569,-7.22 -0.038,-0.352 -0.077,-0.703 -0.116,-1.054"
   style="fill:#c1c1c1;fill-rule:evenodd;stroke:#ffffff;stroke-width:0.1212;stroke-linecap:square;stroke-miterlimit:10" /><line
   id="line48"
   y2="84.085999"
   x2="312.16327"
   y1="84.093002"
   x1="312.16327"
   style="fill:none;stroke:#000000;stroke-width:0.1212;stroke-linecap:square;stroke-miterlimit:10" /><path
   id="path50"
   d="m 316.16327,84.1 c 0.33,-1.981 1.571,-4.122 3.878,-4.122 2.06,0 3.878,2.125 3.878,4.122 0,1.997 -1.819,4.121 -3.878,4.121 -2.307,0 -3.548,-2.139 -3.878,-4.121"
   style="fill:#c1c1c1;fill-rule:evenodd;stroke:#ffffff;stroke-width:0.1212;stroke-linecap:square;stroke-miterlimit:10" /><line
   id="line52"
   y2="84.093002"
   x2="316.16327"
   y1="84.097"
   x1="316.16327"
   style="fill:none;stroke:#000000;stroke-width:2.18179989;stroke-linecap:square;stroke-miterlimit:10" /><line
   id="line54"
   y2="84.083"
   x2="310.83026"
   y1="84.091003"
   x1="310.83026"
   style="fill:none;stroke:#ffffff;stroke-width:2.18179989;stroke-linecap:square;stroke-miterlimit:10" /><path
   id="path56"
   d="m 228.41427,59.493 c 0,-8.386 0,-16.771 0,-25.157 0,-10.807 0,-21.614 0,-32.421 0,-0.091 0.006,-1.696 -0.006,-1.696 -0.229,0 -0.457,0 -0.685,0 -1.526,0 -3.053,0 -4.58,0 -6.695,0 -13.39,0 -20.085,0 -10.34,0 -20.681,0 -31.021,0 -12.531,0 -25.063,0 -37.595,0 -13.27,0 -26.538,0 -39.807999,0 -12.554,0 -25.106,0 -37.66,0 -10.384,0 -20.768,0 -31.151,0 -6.761,0 -13.521,0 -20.2810001,0 -1.567,0 -3.135,0 -4.70199996,0 -0.251,0 -0.502,0 -0.753,0 -0.032,0 -0.015,1.392 -0.015,1.484 0,10.68 0,21.359 0,32.039 0,8.581 0,17.162 0,25.743 0,0.017 7.93799996,0.008 8.36499996,0.008 7.5810001,0 15.1620001,0 22.7430001,0 10.921,0 21.842,0 32.763,0 12.808,0 25.614,0 38.421999,0 13.239,0 26.479,0 39.718,0 12.219,0 24.438,0 36.655,0 9.744,0 19.487,0 29.23,0 5.815,0 11.63,0 17.445,0 1.002,0 2.001,0 3.001,0"
   style="fill:#d40000;fill-opacity:1;fill-rule:evenodd" /><path
   id="path58"
   d="m 228.41427,59.493 c -2.87,0 -5.741,0 -8.611,0 -7.642,0 -15.284,0 -22.926,0 -10.96,0 -21.92,0 -32.88,0 -12.824,0 -25.648,0 -38.473,0 -13.235,0 -26.469999,0 -39.704999,0 -12.191,0 -24.384,0 -36.575,0 -9.695,0 -19.391,0 -29.086,0 -5.745,0 -11.4900001,0 -17.2350001,0 -0.937,0 -1.873,0 -2.81099996,0 -0.084,0 -0.039,-5.555 -0.039,-5.911 0,-12.083 0,-24.167 0,-36.251 0,-4.784 0,-9.568 0,-14.353 0,-0.9 0,-1.801 0,-2.702 0,-0.118 0.31,-0.057 0.405,-0.057 3.99299996,0 7.98499996,0 11.97900006,0 8.46,0 16.919,0 25.378,0 11.473,0 22.944,0 34.416,0 13.031,0 26.062,0 39.093999,0 13.137,0 26.272,0 39.409,0 11.788,0 23.577,0 35.365,0 8.986,0 17.973,0 26.959,0 4.731,0 9.461,0 14.192,0 0.348,0 0.695,0 1.042,0 0.233,0 0.102,0.548 0.102,0.722 0,3.778 0,7.556 0,11.333 0,12.412 0,24.823 0,37.235 0,3.329 0,6.656 0,9.984"
   style="fill:none;stroke:#000000;stroke-width:0.1212;stroke-linecap:square;stroke-miterlimit:10" /><path
   id="path60"
   d="m 206.23527,84.1 c 0.163,-2.126 0.415,-4.307 1.212,-6.304 0.811,-2.033 2.018,-3.734 3.375,-5.431 1.233,-1.541 3.355,-2.816 5.109,-3.659 1.802,-0.866 4.193,-1.479 6.205,-1.312 2.255,0.188 4.336,0.583 6.34,1.675 1.893,1.031 3.677,2.339 5.028,4.028 2.609,3.263 4.266,7.56 3.94,11.79 -0.315,4.094 -1.812,8.507 -4.945,11.329 -3.388,3.051 -7.325,4.886 -11.957,4.5 -3.942,-0.328 -7.844,-2.54 -10.307,-5.616 -2.611,-3.259 -3.684,-6.882 -4,-11"
   style="fill-rule:evenodd;stroke:#ffffff;stroke-width:0.1212;stroke-linecap:square;stroke-miterlimit:10" /><line
   id="line62"
   y2="84.071999"
   x2="206.23528"
   y1="84.085999"
   x1="206.23528"
   style="fill:none;stroke:#000000;stroke-width:0.1212;stroke-linecap:square;stroke-miterlimit:10" /><path
   id="path64"
   d="m 213.99127,84.1 c 0.217,-1.956 0.667,-4.181 2.122,-5.638 1.619,-1.62 3.333,-2.458 5.618,-2.711 1.883,-0.209 4.126,0.942 5.411,2.229 1.549,1.551 2.314,3.507 2.554,5.665 0.458,4.129 -2.951,8.273 -7.02,8.729 -4.3,0.481 -8.102,-3.014 -8.569,-7.22 -0.037,-0.352 -0.076,-0.703 -0.116,-1.054"
   style="fill:#c1c1c1;fill-rule:evenodd;stroke:#ffffff;stroke-width:0.1212;stroke-linecap:square;stroke-miterlimit:10" /><line
   id="line66"
   y2="84.085999"
   x2="213.99127"
   y1="84.093002"
   x1="213.99127"
   style="fill:none;stroke:#000000;stroke-width:0.1212;stroke-linecap:square;stroke-miterlimit:10" /><path
   id="path68"
   d="m 217.99127,84.1 c 0.33,-1.981 1.571,-4.122 3.878,-4.122 2.06,0 3.878,2.125 3.878,4.122 0,1.997 -1.819,4.121 -3.878,4.121 -2.307,0 -3.548,-2.139 -3.878,-4.121"
   style="fill:#c1c1c1;fill-rule:evenodd;stroke:#ffffff;stroke-width:0.1212;stroke-linecap:square;stroke-miterlimit:10" /><line
   id="line70"
   y2="84.093002"
   x2="217.99127"
   y1="84.097"
   x1="217.99127"
   style="fill:none;stroke:#000000;stroke-width:2.18179989;stroke-linecap:square;stroke-miterlimit:10" /><line
   id="line72"
   y2="84.083"
   x2="212.65826"
   y1="84.091003"
   x1="212.65826"
   style="fill:none;stroke:#ffffff;stroke-width:0.1212;stroke-linecap:square;stroke-miterlimit:10" /><path
   id="path74"
   d="m 166.96627,84.1 c 0.163,-2.126 0.414,-4.307 1.211,-6.304 0.812,-2.033 2.019,-3.734 3.375,-5.431 1.233,-1.541 3.355,-2.816 5.109,-3.659 1.802,-0.866 4.192,-1.479 6.204,-1.312 2.256,0.188 4.336,0.583 6.34,1.675 1.893,1.031 3.676,2.339 5.028,4.028 2.609,3.262 4.265,7.56 3.94,11.79 -0.315,4.094 -1.812,8.506 -4.945,11.329 -3.387,3.051 -7.325,4.886 -11.957,4.5 -3.942,-0.328 -7.843,-2.54 -10.307,-5.616 -2.609,-3.26 -3.682,-6.881 -3.998,-11"
   style="fill-rule:evenodd;stroke:#ffffff;stroke-width:0.1212;stroke-linecap:square;stroke-miterlimit:10" /><line
   id="line76"
   y2="84.071999"
   x2="166.96628"
   y1="84.085999"
   x1="166.96628"
   style="fill:none;stroke:#000000;stroke-width:0.1212;stroke-linecap:square;stroke-miterlimit:10" /><path
   id="path78"
   d="m 174.72227,84.1 c 0.218,-1.956 0.668,-4.181 2.123,-5.638 1.618,-1.62 3.333,-2.458 5.618,-2.711 1.882,-0.209 4.127,0.941 5.412,2.229 1.549,1.551 2.313,3.507 2.554,5.665 0.475,4.264 -3.06,8.286 -7.192,8.748 -4.412,0.494 -7.961,-3.339 -8.424,-7.485 -0.031,-0.269 -0.061,-0.539 -0.091,-0.808"
   style="fill:#c1c1c1;fill-rule:evenodd;stroke:#ffffff;stroke-width:0.1212;stroke-linecap:square;stroke-miterlimit:10" /><line
   id="line80"
   y2="84.085999"
   x2="174.72227"
   y1="84.093002"
   x1="174.72227"
   style="fill:none;stroke:#000000;stroke-width:0.1212;stroke-linecap:square;stroke-miterlimit:10" /><path
   id="path82"
   d="m 178.72227,84.1 c 0.33,-1.981 1.57,-4.122 3.878,-4.122 2.06,0 3.878,2.125 3.878,4.122 0,1.997 -1.819,4.121 -3.878,4.121 -2.307,0 -3.548,-2.14 -3.878,-4.121"
   style="fill:#c1c1c1;fill-rule:evenodd;stroke:#ffffff;stroke-width:0.1212;stroke-linecap:square;stroke-miterlimit:10" /><line
   id="line84"
   y2="84.093002"
   x2="178.72227"
   y1="84.097"
   x1="178.72227"
   style="fill:none;stroke:#000000;stroke-width:2.18179989;stroke-linecap:square;stroke-miterlimit:10" /><line
   id="line86"
   y2="84.083"
   x2="173.38927"
   y1="84.091003"
   x1="173.38927"
   style="fill:none;stroke:#ffffff;stroke-width:0.1212;stroke-linecap:square;stroke-miterlimit:10" /><path
   id="path88"
   d="m 56.189271,84.1 c 0.163,-2.127 0.416,-4.306 1.213,-6.304 0.811,-2.034 2.017,-3.733 3.373,-5.431 1.233,-1.542 3.357,-2.816 5.111,-3.659 1.802,-0.866 4.191,-1.479 6.203,-1.312 2.255,0.188 4.336,0.582 6.34,1.675 1.894,1.033 3.676,2.338 5.029,4.028 2.61,3.26 4.265,7.562 3.939,11.79 -0.314,4.096 -1.812,8.504 -4.944,11.329 -3.385,3.052 -7.326,4.886 -11.956,4.5 -3.941,-0.329 -7.846,-2.539 -10.308,-5.616 -2.609,-3.261 -3.684,-6.881 -4,-11"
   style="fill-rule:evenodd;stroke:#ffffff;stroke-width:0.1212;stroke-linecap:square;stroke-miterlimit:10" /><line
   id="line90"
   y2="84.071999"
   x2="56.189281"
   y1="84.085999"
   x1="56.189281"
   style="fill:none;stroke:#000000;stroke-width:0.1212;stroke-linecap:square;stroke-miterlimit:10" /><path
   id="path92"
   d="m 63.947271,84.1 c 0.218,-1.958 0.667,-4.179 2.123,-5.638 1.617,-1.621 3.332,-2.457 5.616,-2.711 1.884,-0.21 4.125,0.942 5.411,2.229 1.549,1.549 2.315,3.508 2.555,5.665 0.458,4.127 -2.952,8.274 -7.02,8.729 -4.375,0.489 -8.109,-3.079 -8.58,-7.32 -0.035,-0.319 -0.07,-0.637 -0.105,-0.954"
   style="fill:#c1c1c1;fill-rule:evenodd;stroke:#ffffff;stroke-width:0.1212;stroke-linecap:square;stroke-miterlimit:10" /><line
   id="line94"
   y2="84.085999"
   x2="63.947277"
   y1="84.093002"
   x1="63.947277"
   style="fill:none;stroke:#000000;stroke-width:0.1212;stroke-linecap:square;stroke-miterlimit:10" /><path
   id="path96"
   d="m 67.945271,84.1 c 0.335,-1.981 1.569,-4.121 3.879,-4.122 2.06,-10e-4 3.879,2.126 3.879,4.122 0,1.997 -1.819,4.122 -3.879,4.121 -2.31,-0.001 -3.544,-2.14 -3.879,-4.121"
   style="fill:#c1c1c1;fill-rule:evenodd;stroke:#ffffff;stroke-width:0.1212;stroke-linecap:square;stroke-miterlimit:10" /><line
   id="line98"
   y2="84.093002"
   x2="67.945267"
   y1="84.097"
   x1="67.945267"
   style="fill:none;stroke:#000000;stroke-width:2.18179989;stroke-linecap:square;stroke-miterlimit:10" /><line
   id="line100"
   y2="84.083"
   x2="62.613262"
   y1="84.091003"
   x1="62.613262"
   style="fill:none;stroke:#ffffff;stroke-width:0.1212;stroke-linecap:square;stroke-miterlimit:10" /><path
   id="path102"
   d="m 17.042271,84.1 c 0.163,-2.126 0.414,-4.307 1.211,-6.304 0.812,-2.033 2.018,-3.735 3.375,-5.431 1.235,-1.541 3.354,-2.816 5.109,-3.659 1.803,-0.865 4.192,-1.479 6.205,-1.312 2.256,0.188 4.334,0.583 6.339,1.675 1.893,1.031 3.678,2.338 5.029,4.028 2.607,3.262 4.266,7.561 3.94,11.79 -0.314,4.091 -1.812,8.51 -4.945,11.329 -3.389,3.05 -7.324,4.886 -11.957,4.5 -3.943,-0.328 -7.842,-2.54 -10.307,-5.616 -2.611,-3.258 -3.682,-6.883 -3.999,-11"
   style="fill-rule:evenodd;stroke:#ffffff;stroke-width:0.1212;stroke-linecap:square;stroke-miterlimit:10" /><line
   id="line104"
   y2="84.071999"
   x2="17.04228"
   y1="84.085999"
   x1="17.04228"
   style="fill:none;stroke:#000000;stroke-width:0.1212;stroke-linecap:square;stroke-miterlimit:10" /><path
   id="path106"
   d="m 24.798271,84.1 c 0.217,-1.957 0.668,-4.18 2.123,-5.638 1.617,-1.621 3.334,-2.458 5.618,-2.711 1.882,-0.209 4.127,0.941 5.411,2.229 1.548,1.552 2.313,3.506 2.553,5.665 0.474,4.264 -3.058,8.285 -7.19,8.748 -4.411,0.494 -7.965,-3.339 -8.425,-7.485 -0.03,-0.269 -0.06,-0.539 -0.09,-0.808"
   style="fill:#c1c1c1;fill-rule:evenodd;stroke:#ffffff;stroke-width:0.1212;stroke-linecap:square;stroke-miterlimit:10" /><line
   id="line108"
   y2="84.085999"
   x2="24.798262"
   y1="84.093002"
   x1="24.798262"
   style="fill:none;stroke:#000000;stroke-width:0.1212;stroke-linecap:square;stroke-miterlimit:10" /><path
   id="path110"
   d="m 28.798271,84.1 c 0.33,-1.981 1.57,-4.123 3.879,-4.122 2.061,0.001 3.877,2.125 3.877,4.122 0,1.997 -1.817,4.12 -3.877,4.121 -2.309,10e-4 -3.549,-2.139 -3.879,-4.121"
   style="fill:#c1c1c1;fill-rule:evenodd;stroke:#ffffff;stroke-width:0.1212;stroke-linecap:square;stroke-miterlimit:10" /><line
   id="line112"
   y2="84.093002"
   x2="28.798262"
   y1="84.097"
   x1="28.798262"
   style="fill:none;stroke:#000000;stroke-width:2.18179989;stroke-linecap:square;stroke-miterlimit:10" /><line
   id="line114"
   y2="84.083"
   x2="23.466261"
   y1="84.091003"
   x1="23.466261"
   style="fill:none;stroke:#ffffff;stroke-width:0.1212;stroke-linecap:square;stroke-miterlimit:10" /><path
   id="path116"
   d="m 101.15427,66.523 c 0,-2.321 0,-4.644 0,-6.965 0,-0.144 -1.011,-0.065 -1.15,-0.065 -3.011999,0 -6.021999,0 -9.033999,0 -11.562,0 -23.125,0 -34.688,0 -12.371,0 -24.743,0 -37.114,0 -4.022,0 -8.045,0 -12.0680001,0 -1.039,0 -2.078,0 -3.117,0 -0.883,0 -0.758,-0.083 -0.758,0.918 0,0.541 -0.046,6.112 0.044,6.112 0.582,0 1.165,0 1.748,0 3.324,0 6.6490001,0 9.9740001,0 11.834,0 23.667,0 35.501,0 12.169,0 24.338,0 36.507,0 4.717,0 9.436,0 14.154999,0"
   style="fill-rule:evenodd" /><path
   id="path118"
   d="m 101.15427,66.523 c -5.935999,0 -11.870999,0 -17.806999,0 -12.546,0 -25.091,0 -37.637,0 -11.263,0 -22.525,0 -33.789,0 -2.6840001,0 -5.3680001,0 -8.0530001,0 -0.977,0 -0.645,-0.296 -0.645,-1.37 0,-0.521 -0.088,-5.66 0.077,-5.66 6.555,0 13.1100001,0 19.6650001,0 12.69,0 25.382,0 38.073,0 10.935,0 21.869,0 32.805,0 2.222,0 4.443,0 6.663999,0 0.62,0 0.646,-0.139 0.646,0.539 10e-4,2.164 10e-4,4.327 10e-4,6.491"
   style="fill:none;stroke:#000000;stroke-width:0.1212;stroke-linecap:square;stroke-miterlimit:10" /><path
   id="path120"
   d="m 54.857271,83.735 c -1.074,0 -2.149,0 -3.224,0 -0.546,0 -1.093,0 -1.639,0 -0.38,0 -0.229,-0.269 -0.229,-0.626 0,-0.834 0.24,-2.034 -0.068,-2.819 -0.453,-1.157 -0.907,-2.314 -1.36,-3.472 -0.231,-0.591 -0.463,-1.181 -0.694,-1.771 -0.081,-0.204 -0.152,-0.606 -0.306,-0.771 -0.645,-0.689 -1.289,-1.379 -1.934,-2.069 -1.496,-1.601 -2.912,-3.206 -4.606,-4.593 7.798,0 15.595,0 23.393,0 -1.198,0.699 -2.501,1.267 -3.461,2.276 -1.345,1.416 -2.689,2.832 -4.034,4.248 -0.296,0.312 -0.366,1.291 -0.476,1.693 -0.317,1.163 -0.635,2.326 -0.951,3.49 -0.143,0.523 -0.41,1.118 -0.41,1.667 -0.001,0.916 -0.001,1.832 -0.001,2.747"
   style="fill-rule:evenodd" /><path
   id="path122"
   d="m 54.857271,83.735 c -1.074,0 -2.149,0 -3.224,0 -0.546,0 -1.093,0 -1.639,0 -0.38,0 -0.229,-0.269 -0.229,-0.626 0,-0.834 0.24,-2.034 -0.068,-2.819 -0.453,-1.157 -0.907,-2.314 -1.36,-3.472 -0.231,-0.591 -0.463,-1.181 -0.694,-1.771 -0.081,-0.204 -0.152,-0.606 -0.306,-0.771 -0.645,-0.689 -1.289,-1.379 -1.934,-2.069 -1.496,-1.601 -2.912,-3.206 -4.606,-4.593 7.798,0 15.595,0 23.393,0 -1.198,0.699 -2.501,1.267 -3.461,2.276 -1.336,1.407 -2.672,2.814 -4.009,4.221 -0.266,0.28 -0.314,1.035 -0.412,1.394 -0.316,1.159 -0.632,2.319 -0.948,3.479 -0.15,0.554 -0.502,1.284 -0.502,1.863 0,0.882 0,1.765 0,2.646"
   style="fill:none;stroke:#000000;stroke-width:0.1212;stroke-linecap:square;stroke-miterlimit:10" /><path
   id="path124"
   d="m 24.435271,67.856 c -4.793,0 -9.587,0 -14.38,0 -0.031,0 -0.4070001,-0.011 -0.4070001,0.009 0,0.452 0,0.905 0,1.358 0,1.428 0,2.855 0,4.283 0,0.597 0.6730001,1.095 1.0380001,1.531 0.997,1.192 1.995,2.386 2.992,3.578 0.717,0.858 1.435,1.717 2.151,2.574 0.273,-1.211 0.375,-2.668 0.868,-3.804 0.503,-1.163 0.88,-2.677 1.632,-3.693 0.863,-1.168 1.607,-2.383 2.742,-3.291 1.1,-0.879 2.23,-1.71 3.364,-2.545"
   style="fill-rule:evenodd" /><path
   id="path126"
   d="m 24.435271,67.856 c -4.793,0 -9.587,0 -14.38,0 -0.031,0 -0.4070001,-0.011 -0.4070001,0.009 0,0.452 0,0.905 0,1.358 0,1.428 0,2.855 0,4.283 0,0.597 0.6730001,1.095 1.0380001,1.531 0.997,1.192 1.995,2.386 2.992,3.578 0.717,0.858 1.435,1.717 2.151,2.574 0.273,-1.211 0.375,-2.668 0.868,-3.804 0.503,-1.163 0.88,-2.677 1.632,-3.693 0.863,-1.168 1.607,-2.383 2.742,-3.291 1.1,-0.879 2.23,-1.71 3.364,-2.545"
   style="fill:none;stroke:#000000;stroke-width:0.1212;stroke-linecap:square;stroke-miterlimit:10" /><path
   id="path128"
   d="m 12.316271,54.402 c 0,-0.914 0.031,-1.816 -0.084,-2.724 -0.079,-0.624 -1.459,-0.428 -1.992,-0.428 -1.3120001,0 -2.6260001,0 -3.9390001,0 -0.299,0 -0.568,0.006 -0.863,0.048 -0.688,0.098 -0.58,0.332 -0.747,1.001 -0.189,0.759 -0.079,1.864 0.136,2.617 0.213,0.744 1.408,0.576 2.051,0.576 1.312,0 2.626,0 3.9390001,0 0.325,0 0.551,-0.006 0.863,-0.096 0.645,-0.183 0.539,-0.329 0.636,-0.994"
   style="fill:#a3a3a3;fill-rule:evenodd" /><path
   id="path130"
   d="m 12.316271,54.402 c 0,-0.914 0.031,-1.816 -0.084,-2.724 -0.079,-0.624 -1.459,-0.428 -1.992,-0.428 -1.3120001,0 -2.6260001,0 -3.9390001,0 -0.299,0 -0.568,0.006 -0.863,0.048 -0.688,0.098 -0.58,0.332 -0.747,1.001 -0.189,0.759 -0.079,1.864 0.136,2.617 0.213,0.744 1.408,0.576 2.051,0.576 1.312,0 2.626,0 3.9390001,0 0.325,0 0.551,-0.006 0.863,-0.096 0.645,-0.183 0.539,-0.329 0.636,-0.994"
   style="fill:none;stroke:#000000;stroke-width:0.1212;stroke-linecap:square;stroke-miterlimit:10" /><path
   id="path132"
   d="m 12.316271,54.402 c 0,-0.914 0.031,-1.816 -0.084,-2.724 -0.079,-0.624 -1.459,-0.428 -1.992,-0.428 -1.3120001,0 -2.6260001,0 -3.9390001,0 -0.299,0 -0.568,0.006 -0.863,0.048 -0.688,0.098 -0.58,0.332 -0.747,1.001 -0.189,0.759 -0.079,1.864 0.136,2.617 0.213,0.744 1.408,0.576 2.051,0.576 1.312,0 2.626,0 3.9390001,0 0.325,0 0.551,-0.006 0.863,-0.096 0.645,-0.183 0.539,-0.329 0.636,-0.994"
   style="fill:none;stroke:#000000;stroke-width:0.1212;stroke-linecap:square;stroke-miterlimit:10" /><path
   id="path134"
   d="m 12.316271,54.402 c 0,-0.914 0.031,-1.816 -0.084,-2.724 -0.079,-0.624 -1.459,-0.428 -1.992,-0.428 -1.3120001,0 -2.6260001,0 -3.9390001,0 -0.299,0 -0.568,0.006 -0.863,0.048 -0.688,0.098 -0.58,0.332 -0.747,1.001 -0.189,0.759 -0.079,1.864 0.136,2.617 0.213,0.744 1.408,0.576 2.051,0.576 1.312,0 2.626,0 3.9390001,0 0.325,0 0.551,-0.006 0.863,-0.096 0.645,-0.183 0.539,-0.329 0.636,-0.994"
   style="fill:none;stroke:#000000;stroke-width:0.1212;stroke-linecap:square;stroke-miterlimit:10" /><path
   id="path136"
   d="m 5.2842709,89.069 c 0,-4.742 0,-9.484 0,-14.227 0,-2.552 0,-5.103 0,-7.654 0,-0.441 0.215,-1.028 -0.288,-1.028 -1.009,0 -1.044,-0.198 -1.044,0.7 0,4.509 0,9.018 0,13.526 0,2.239 0,4.479 0,6.719 0,0.564 0,1.13 0,1.694 0,0.576 0.873,0.27 1.332,0.27"
   style="fill-rule:evenodd" /><path
   id="path138"
   d="m 5.2842709,89.069 c -0.805,0 -1.332,0.335 -1.332,-0.492 0,-0.883 0,-1.766 0,-2.648 0,-3.037 0,-6.075 0,-9.112 0,-2.857 0,-5.715 0,-8.572 0,-0.658 0,-1.315 0,-1.974 0,-0.202 1.332,-0.299 1.332,0.034 0,7.588 0,15.176 0,22.764"
   style="fill:none;stroke:#000000;stroke-width:0.1212;stroke-linecap:square;stroke-miterlimit:10" /><path
   id="path140"
   d="m 285.86327,81.19 c 0,-2.456 0,-4.911 0,-7.367 0,-1.811 0.352,-3.95 -0.844,-5.445 -1.053,-1.317 -2.829,-1.127 -4.334,-1.127 -1.993,0 -3.986,0 -5.979,0 -6.131,0 -12.261,0 -18.392,0 -1.272,0 -2.545,0 -3.817,0 -1.047,0 -1.993,-0.021 -2.894,0.581 -0.984,0.656 -1.264,1.656 -1.542,2.771 -0.173,0.696 -0.131,1.484 -0.131,2.198 0,1.47 0,2.939 0,4.409 0,1.242 0,2.483 0,3.726 0,0.725 0.056,1.699 0.383,2.354 0.229,0.458 0.458,0.917 0.688,1.375 0.127,0.255 1.057,0.559 1.33,0.694 0.63,0.315 1.57,0.436 2.27,0.436 1.582,0 3.164,0 4.745,0 6.171,0 12.342,0 18.513,0 1.711,0 3.422,0 5.134,0 1.638,0 3.669,-0.378 4.46,-1.962 0.427,-0.859 0.41,-1.693 0.41,-2.643"
   style="fill:#ffffff;fill-rule:evenodd" /><path
   id="path142"
   d="m 285.86327,81.19 c 0,-2.456 0,-4.911 0,-7.367 0,-1.811 0.352,-3.95 -0.844,-5.445 -1.053,-1.317 -2.829,-1.127 -4.334,-1.127 -1.993,0 -3.986,0 -5.979,0 -6.131,0 -12.261,0 -18.392,0 -1.272,0 -2.545,0 -3.817,0 -1.047,0 -1.993,-0.021 -2.894,0.581 -0.984,0.656 -1.264,1.656 -1.542,2.771 -0.173,0.696 -0.131,1.484 -0.131,2.198 0,1.47 0,2.939 0,4.409 0,1.242 0,2.483 0,3.726 0,0.725 0.056,1.699 0.383,2.354 0.229,0.458 0.458,0.917 0.688,1.375 0.127,0.255 1.057,0.559 1.33,0.694 0.63,0.315 1.57,0.436 2.27,0.436 1.582,0 3.164,0 4.745,0 6.171,0 12.342,0 18.513,0 1.711,0 3.422,0 5.134,0 1.638,0 3.669,-0.378 4.46,-1.962 0.427,-0.859 0.41,-1.693 0.41,-2.643"
   style="fill:none;stroke:#ffffff;stroke-width:0.1212;stroke-linecap:square;stroke-miterlimit:10" /><path
   id="path144"
   d="m 285.86327,81.19 c 0,-2.456 0,-4.911 0,-7.367 0,-1.811 0.352,-3.95 -0.844,-5.445 -1.053,-1.317 -2.829,-1.127 -4.334,-1.127 -1.993,0 -3.986,0 -5.979,0 -6.131,0 -12.261,0 -18.392,0 -1.272,0 -2.545,0 -3.817,0 -1.047,0 -1.993,-0.021 -2.894,0.581 -0.984,0.656 -1.264,1.656 -1.542,2.771 -0.173,0.696 -0.131,1.484 -0.131,2.198 0,1.47 0,2.939 0,4.409 0,1.242 0,2.483 0,3.726 0,0.725 0.056,1.699 0.383,2.354 0.229,0.458 0.458,0.917 0.688,1.375 0.127,0.255 1.057,0.559 1.33,0.694 0.63,0.315 1.57,0.436 2.27,0.436 1.582,0 3.164,0 4.745,0 6.171,0 12.342,0 18.513,0 1.711,0 3.422,0 5.134,0 1.638,0 3.669,-0.378 4.46,-1.962 0.427,-0.859 0.41,-1.693 0.41,-2.643"
   style="fill:#ffffff;fill-rule:evenodd" /><path
   id="path146"
   d="m 285.86327,81.19 c 0,-2.456 0,-4.911 0,-7.367 0,-1.811 0.352,-3.95 -0.844,-5.445 -1.053,-1.317 -2.829,-1.127 -4.334,-1.127 -1.993,0 -3.986,0 -5.979,0 -6.131,0 -12.261,0 -18.392,0 -1.272,0 -2.545,0 -3.817,0 -1.047,0 -1.993,-0.021 -2.894,0.581 -0.984,0.656 -1.264,1.656 -1.542,2.771 -0.173,0.696 -0.131,1.484 -0.131,2.198 0,1.47 0,2.939 0,4.409 0,1.242 0,2.483 0,3.726 0,0.725 0.056,1.699 0.383,2.354 0.229,0.458 0.458,0.917 0.688,1.375 0.127,0.255 1.057,0.559 1.33,0.694 0.63,0.315 1.57,0.436 2.27,0.436 1.582,0 3.164,0 4.745,0 6.171,0 12.342,0 18.513,0 1.711,0 3.422,0 5.134,0 1.638,0 3.669,-0.378 4.46,-1.962 0.427,-0.859 0.41,-1.693 0.41,-2.643"
   style="fill:none;stroke:#ffffff;stroke-width:0.1212;stroke-linecap:square;stroke-miterlimit:10" /><path
   id="path148"
   d="m 285.86327,81.19 c 0,-2.456 0,-4.911 0,-7.367 0,-1.811 0.352,-3.95 -0.844,-5.445 -1.053,-1.317 -2.829,-1.127 -4.334,-1.127 -1.993,0 -3.986,0 -5.979,0 -6.131,0 -12.261,0 -18.392,0 -1.272,0 -2.545,0 -3.817,0 -1.047,0 -1.993,-0.021 -2.894,0.581 -0.984,0.656 -1.264,1.656 -1.542,2.771 -0.173,0.696 -0.131,1.484 -0.131,2.198 0,1.47 0,2.939 0,4.409 0,1.242 0,2.483 0,3.726 0,0.725 0.056,1.699 0.383,2.354 0.229,0.458 0.458,0.917 0.688,1.375 0.127,0.255 1.057,0.559 1.33,0.694 0.63,0.315 1.57,0.436 2.27,0.436 1.582,0 3.164,0 4.745,0 6.171,0 12.342,0 18.513,0 1.711,0 3.422,0 5.134,0 1.638,0 3.669,-0.378 4.46,-1.962 0.427,-0.859 0.41,-1.693 0.41,-2.643"
   style="fill:none;stroke:#000000;stroke-width:2.18179989;stroke-linecap:square;stroke-miterlimit:10" /><path
   id="path150"
   d="m 263.32027,83.735 c 0,-4.894 0,-9.787 0,-14.681 0,-0.307 0,-0.613 0,-0.92 0,-0.339 -0.533,-0.157 -0.801,-0.157 -0.102,0 -0.047,1.519 -0.047,1.664 0,3.013 0,6.025 0,9.038 0,1.326 0,2.652 0,3.979 0,0.32 0,0.641 0,0.961 -10e-4,0.274 0.633,0.116 0.848,0.116"
   style="fill-rule:evenodd" /><path
   id="path152"
   d="m 263.32027,83.735 c -1.031,0 -0.848,-0.019 -0.848,-0.973 0,-1.237 0,-2.476 0,-3.713 0,-3.048 0,-6.096 0,-9.145 0,-0.642 0,-1.283 0,-1.925 0,0.057 0.848,-0.115 0.848,0.049 0,0.274 0,0.548 0,0.821 0,2.829 0,5.658 0,8.487 0,2.135 0,4.267 0,6.399"
   style="fill:none;stroke:#000000;stroke-width:0.1212;stroke-linecap:square;stroke-miterlimit:10" /><path
   id="path154"
   d="m 277.86427,24.462 c 0,9.289 0,18.578 0,27.867 0,5.545 0,11.089 0,16.634 0,1.228 0,2.455 0,3.683 0,0.506 0.511,1.012 0.763,1.422 0.241,0.391 0.836,1.91 1.341,1.91 5.082,0 10.163,0 15.244,0 2.661,0 5.323,0 7.984,0 0.548,0 1.096,0 1.644,0 0.415,0 1.474,-1.611 1.74,-1.913 0.476,-0.54 0.952,-1.079 1.428,-1.618 0.082,-0.093 0.406,-0.59 0.54,-0.59 0.511,0 1.023,0 1.534,0 2.67,0 5.341,0 8.011,0 4.768,0 9.535,0 14.303,0 0.107,0 0.444,0.592 0.504,0.674 0.474,0.646 0.949,1.29 1.423,1.936 0.341,0.464 0.682,0.927 1.023,1.391 0.26,0.354 0.816,0.537 1.188,0.75 0.269,0.153 1.688,0.77 1.688,0.193 0,-0.516 0,-1.031 0,-1.548 0,-5.506 0,-11.012 0,-16.519 0,-5.236 0,-10.473 0,-15.709 0,-0.893 -0.072,-1.292 -0.398,-2.13 -0.96,-2.47 -1.921,-4.939 -2.881,-7.409 -1.103,-2.836 -2.206,-5.672 -3.309,-8.508 -0.308,-0.792 -0.616,-1.584 -0.924,-2.376 -0.256,-0.659 -0.9,-1.095 -1.393,-1.587 -0.773,-0.773 -1.372,-1.352 -2.4,-1.676 -0.45,-0.142 -1.083,-0.223 -1.479,-0.487 -0.169,-0.112 -0.248,-0.204 -0.434,-0.205 -1.31,-0.012 -2.621,-0.023 -3.931,-0.035 -11.411,-0.101 -22.822,-0.203 -34.232,-0.304 -0.892,-0.008 -1.783,-0.016 -2.675,-0.024 0,0.998 0,1.995 0,2.992 0,0.729 0,1.458 0,2.187 0,0.14 0.105,0.899 0,1.003 -0.105,0.104 -0.844,0 -0.985,0 -0.722,0 -1.444,0 -2.167,0 -1.049,-0.004 -2.1,-0.004 -3.15,-0.004"
   style="fill:#d40000;fill-opacity:1;fill-rule:evenodd" /><path
   id="path156"
   d="m 268.65327,35.493 c 0,-4.666 0,-9.332 0,-13.998 0,-2.689 0,-5.379 0,-8.068 0,-0.517 0,-1.034 0,-1.551 0,0.001 -0.485,-0.124 -0.485,0.035 0,0.208 0,0.415 0,0.622 0,4.44 0,8.881 0,13.322 0,2.333 0,4.667 0,7 0,0.678 0,1.355 0,2.034 0,0.56 -0.134,0.604 0.485,0.604"
   style="fill-rule:evenodd" /><path
   id="path158"
   d="m 268.65327,35.493 c -0.701,0 -0.485,-0.258 -0.485,-0.909 0,-1.004 0,-2.007 0,-3.011 0,-3.097 0,-6.193 0,-9.29 0,-2.803 0,-5.606 0,-8.41 0,-0.637 0,-1.273 0,-1.91 0,-0.254 0.485,-0.041 0.485,-0.104 0,0.138 0,0.275 0,0.413 0,7.741 0,15.481 0,23.221"
   style="fill:none;stroke:#000000;stroke-width:0.1212;stroke-linecap:square;stroke-miterlimit:10" /><path
   id="path160"
   d="m 284.40827,24.462 c -2.101,-0.001 -4.202,-0.003 -6.302,-0.004 0.002,-3.403 3.016,-5.935 6.308,-5.935 -0.002,1.98 -0.004,3.959 -0.006,5.939"
   style="fill:#d40000;fill-opacity:1;fill-rule:evenodd;stroke:#ffffff;stroke-width:0.1212;stroke-linecap:square;stroke-miterlimit:10" /><path
   id="path162"
   d="m 265.74427,11.856 c 1.05,-0.849 2.101,-1.697 3.151,-2.545 -0.299,-0.587 -1.48,0.781 -1.785,1.032 -0.363,0.3 -0.727,0.601 -1.09,0.901 -0.233,0.193 -0.045,0.573 -0.276,0.612"
   style="fill:#686868;fill-rule:evenodd" /><path
   id="path164"
   d="m 265.74427,11.856 c 1.05,-0.849 2.101,-1.697 3.151,-2.545 -0.296,-0.581 -1.341,0.665 -1.636,0.909 -0.601,0.497 -1.394,0.833 -1.394,1.637"
   style="fill:none;stroke:#000000;stroke-width:0.1212;stroke-linecap:square;stroke-miterlimit:10" /><path
   id="path166"
   d="m 240.05027,38.523 c 0,-9.961 0,-19.923 0,-29.884 0,-1.374 0,-2.748 0,-4.122 0,-0.116 -5.489,-0.055 -5.934,-0.055 -0.481,0 -5.338,-0.146 -5.338,0.124 0,1.49 0,2.98 0,4.47 0,2.404 -0.042,29.467 0.041,29.467 3.743,0 7.487,0 11.231,0"
   style="fill-rule:evenodd" /><path
   id="path168"
   d="m 240.05027,38.523 c -2.371,0 -4.742,0 -7.112,0 -1.243,0 -2.486,0 -3.729,0 -0.436,0 -0.431,0.073 -0.431,-0.337 0,-4.703 0,-9.405 0,-14.108 0,-5.758 0,-11.517 0,-17.275 0,-0.653 0,-1.306 0,-1.959 0,-0.396 -0.062,-0.382 0.353,-0.382 2.8,0 5.601,0 8.401,0 0.838,0 1.676,0 2.514,0 0.01,0 0.004,0.794 0.004,0.842 0,2.017 0,4.034 0,6.051 0,6.308 0,12.616 0,18.923 0,2.748 0,5.497 0,8.245"
   style="fill:none;stroke:#000000;stroke-width:0.1212;stroke-linecap:square;stroke-miterlimit:10" /><path
   id="path170"
   d="m 237.86827,37.917 c 0,-9.876 0,-19.753 0,-29.63 0,-0.67 0,-1.34 0,-2.011 0,-0.485 -0.065,-0.359 -0.583,-0.359 -1.444,0 -2.887,0 -4.331,0 -0.671,0 -1.343,0 -2.014,0 -0.124,0 -0.861,-0.096 -0.949,0 -0.105,0.116 0,0.823 0,0.969 0,0.873 0,1.746 0,2.619 0,2.816 0,5.633 0,8.449 0,5.864 0,11.729 0,17.593 0,0.67 0,1.34 0,2.011 0,0.485 0.065,0.359 0.583,0.359 2.431,0 4.862,0 7.294,0"
   style="fill:#ffffff;fill-rule:evenodd" /><path
   id="path172"
   d="m 237.86827,37.917 c -2.432,0 -4.863,0 -7.294,0 -0.519,0 -0.583,0.125 -0.583,-0.359 0,-0.67 0,-1.341 0,-2.011 0,-5.864 0,-11.729 0,-17.593 0,-2.816 0,-5.633 0,-8.449 0,-0.873 0,-1.746 0,-2.619 0,-0.146 -0.105,-0.854 0,-0.969 0.076,-0.083 0.713,0 0.819,0 0.715,0 1.429,0 2.144,0 1.444,0 2.887,0 4.331,0 0.519,0 0.583,-0.125 0.583,0.359 0,0.67 0,1.341 0,2.011 0,9.877 0,19.754 0,29.63"
   style="fill:none;stroke:#000000;stroke-width:0.1212;stroke-linecap:square;stroke-miterlimit:10" /><path
   id="path175"
   d="m 236.77727,16.947 c 0,-2.48 0,-4.96 0,-7.44 0,-0.222 0.101,-2.136 -0.083,-2.136 -1.357,0 -2.715,0 -4.073,0 -0.429,0 -0.858,0 -1.288,0 -0.021,0 -0.01,0.662 -0.01,0.709 0,1.426 0,2.852 0,4.278 0,1.362 0,2.724 0,4.085 0,0.074 -0.047,0.503 0.038,0.503 0.54,0 1.079,0 1.618,0 1.266,10e-4 2.532,10e-4 3.798,10e-4"
   style="fill:url(#pattern3303);fill-rule:evenodd" /><path
   id="path177"
   d="m 236.77727,16.947 c -1.204,0 -2.407,0 -3.61,0 -0.566,0 -1.132,0 -1.698,0 -0.242,0 -0.146,-0.188 -0.146,-0.412 0,-2.78 0,-5.56 0,-8.34 0,-0.272 0,-0.545 0,-0.818 0,-0.011 1.06,-0.005 1.128,-0.005 1.394,0 2.787,0 4.181,0 0.323,0 0.146,1.676 0.146,1.969 0,1.587 0,3.175 0,4.763 -0.001,0.947 -0.001,1.895 -0.001,2.843"
   style="fill:none;stroke:#000000;stroke-width:0.1212;stroke-linecap:square;stroke-miterlimit:10" /><path
   id="path179"
   d="m 232.77727,53.433 c 0,-2.372 0,-4.745 0,-7.117 0,-0.475 0.295,-1.731 -0.287,-1.731 -0.679,0 -1.358,0 -2.038,0 -0.227,0 -1.39,-0.164 -1.553,0 -0.079,0.079 0,0.645 0,0.75 0,0.614 0,1.229 0,1.843 0,1.508 0,3.017 0,4.524 0,0.475 -0.295,1.731 0.287,1.731 1.197,0 2.394,0 3.591,0"
   style="fill-rule:evenodd" /><path
   id="path181"
   d="m 232.77727,53.433 c -1.158,0 -2.316,0 -3.475,0 -0.3,0 -0.403,0.096 -0.403,-0.2 0,-0.458 0,-0.915 0,-1.373 0,-1.5 0,-2.999 0,-4.499 0,-0.635 0,-1.271 0,-1.906 0,-0.123 -0.092,-0.778 0,-0.87 0.143,-0.144 1.167,0 1.365,0 0.703,0 1.406,0 2.109,0 0.3,0 0.403,-0.096 0.403,0.2 0,0.458 0,0.915 0,1.373 10e-4,2.424 10e-4,4.849 10e-4,7.275"
   style="fill:none;stroke:#000000;stroke-width:0.1212;stroke-linecap:square;stroke-miterlimit:10" /><path
   id="path183"
   d="m 263.32027,50.16 c -0.213,0.532 -0.465,1.652 -0.949,2.015 -0.588,0.442 -1.499,1.112 -2.206,0.404 -0.649,-0.649 -0.844,-1.28 -0.844,-2.177 0,-0.441 0.015,-0.787 0.121,-1.212 0.134,-0.536 0.247,-0.56 0.728,-0.848 0,1.085 0.083,2.097 -0.328,3.122 -0.199,0.498 -0.481,0.902 -0.945,1.182 -0.231,0.139 -0.443,0.238 -0.695,0.339 -0.336,0.134 -0.506,-0.124 -0.793,-0.329 -0.684,-0.489 -0.862,-2.06 -0.753,-2.859 0.036,-0.268 0.236,-1.222 0.728,-1.091 0.479,0.127 0.363,1.265 0.363,1.56 0,0.419 -0.151,0.865 -0.252,1.271 -0.181,0.724 -0.178,0.931 -0.838,1.292 -1.009,0.553 -1.952,0.288 -2.63,-0.562 -0.303,-0.38 -0.323,-2.488 -0.01,-2.863 0.012,-0.014 1.065,-1.164 1.065,-0.655 0,0.571 0,1.143 0,1.714 0,0.746 -0.083,1.521 -0.579,2.116 -0.552,0.663 -1.465,1.286 -2.33,0.614 -0.618,-0.48 -0.98,-1.557 -0.969,-2.303 0.006,-0.383 0.139,-0.808 0.222,-1.183 0.141,-0.634 0.188,-0.664 0.747,-1 0.396,1.187 0.167,2.265 0.003,3.488 -0.18,1.348 -1.671,1.239 -2.67,1.239"
   style="fill:none;stroke:#000000;stroke-width:0.1212;stroke-linecap:square;stroke-miterlimit:10" /><path
   id="path185"
   d="m 249.50327,53.433 c -1.113,-0.223 -1.454,-1.339 -1.454,-2.384 0,-1.228 0.127,-1.905 1.091,-2.707 0.447,0.559 0.485,0.693 0.485,1.407 0,0.443 -0.124,1.073 -0.243,1.502 -0.125,0.448 -0.389,0.995 -0.72,1.325 -0.516,0.517 -0.656,0.663 -1.381,0.583 -1.16,-0.129 -1.899,-0.55 -1.899,-1.854 0,-0.609 0,-1.218 0,-1.827 0,-0.592 0.185,-0.854 0.485,-1.378 0.431,0.431 0.635,0.602 0.727,1.212 0.081,0.537 0.171,1.062 0,1.576 -0.312,0.935 -0.971,2.182 -2.087,2.182 -0.426,0 -0.96,-0.146 -1.353,-0.314 -0.688,-0.295 -0.853,-0.493 -1.044,-1.262 -0.227,-0.915 -0.531,-2.173 0,-3.03 0.131,-0.211 0.396,-0.396 0.572,-0.572 0.073,-0.073 0.444,0.376 0.52,0.452 0.273,0.273 0.162,1.101 0.117,1.476 -0.137,1.171 0.013,2.215 -1.159,2.801 -0.703,0.351 -2.362,0.367 -2.72,-0.44 -0.462,-1.039 -1.027,-2.012 -0.882,-3.168 0.042,-0.339 1.111,-1.926 1.396,-1.213 0.26,0.649 0.686,1.73 0.572,2.415 -0.164,0.986 -0.362,1.531 -1.02,2.282 -0.559,0.64 -1.284,0.69 -2.001,0.332"
   style="fill:none;stroke:#000000;stroke-width:0.1212;stroke-linecap:square;stroke-miterlimit:10" /><path
   id="path187"
   d="m 237.50427,52.827 c -0.421,-0.253 -1.058,-0.277 -1.206,-0.671 -0.227,-0.605 -0.28,-1.113 -0.37,-1.754 -0.079,-0.561 -0.188,-1.135 0,-1.697 0.252,-0.758 0.5,-0.848 1.212,-0.848"
   style="fill:none;stroke:#000000;stroke-width:0.1212;stroke-linecap:square;stroke-miterlimit:10" /><path
   id="path189"
   d="m 237.01927,47.857 c 0.295,0.982 0.604,1.878 0.364,2.909 -0.175,0.752 -0.455,2.304 -1.518,2.304 -1.126,0 -1.693,-0.837 -1.771,-1.927 -0.038,-0.529 -0.013,-1.103 -0.143,-1.619 -0.178,-0.711 -0.164,-0.961 0.038,-1.667 0.492,0.328 0.969,0.576 0.969,1.259 0,0.671 -0.043,1.322 -0.099,1.991 -0.045,0.548 -0.634,0.826 -1.068,1.086 -0.434,0.26 -1.122,-0.443 -1.378,-0.699"
   style="fill:none;stroke:#000000;stroke-width:0.1212;stroke-linecap:square;stroke-miterlimit:10" /><path
   id="path191"
   d="m 234.71727,35.372 c 0.077,-0.903 1.767,-0.891 1.697,0 -0.071,0.9 -1.621,0.894 -1.697,0"
   style="fill-rule:evenodd;stroke:#ffffff;stroke-width:0.1212;stroke-linecap:square;stroke-miterlimit:10" /><line
   id="line193"
   y2="35.370998"
   x2="234.71727"
   y1="35.370998"
   x1="234.71727"
   style="fill:none;stroke:#000000;stroke-width:0.1212;stroke-linecap:square;stroke-miterlimit:10" /><path
   id="path195"
   d="m 231.44427,35.372 c 0.077,-0.903 1.767,-0.891 1.697,0 -0.07,0.9 -1.621,0.894 -1.697,0"
   style="fill-rule:evenodd;stroke:#ffffff;stroke-width:0.1212;stroke-linecap:square;stroke-miterlimit:10" /><line
   id="line197"
   y2="35.370998"
   x2="231.44427"
   y1="35.370998"
   x1="231.44427"
   style="fill:none;stroke:#000000;stroke-width:0.1212;stroke-linecap:square;stroke-miterlimit:10" /><line
   id="line199"
   y2="31.614"
   x2="231.44427"
   y1="31.614"
   x1="236.53427"
   style="fill:none;stroke:#000000;stroke-width:0.1212;stroke-linecap:square;stroke-miterlimit:10" /><path
   id="path201"
   d="m 221.86927,59.735 c -9.919,0 -19.838,0 -29.757,0 -2.847,0 -5.695,0 -8.542,0 4.375,1.445 8.75,2.89 13.124,4.335 0.303,0.1 0.087,2.543 0.087,2.895 0,0.495 0,0.991 0,1.486 0,0.025 0.539,0.012 0.583,0.012 2.885,0 5.77,0 8.654,0 0.831,0 1.663,0 2.494,0 0.573,0 0.268,-1.172 0.268,-1.623 0,-0.282 -0.186,-1.941 0.083,-2.044 0.621,-0.237 1.242,-0.475 1.863,-0.712 3.795,-1.449 7.591,-2.899 11.386,-4.349 -0.081,0 -0.162,0 -0.243,0"
   style="fill-rule:evenodd" /><path
   id="path203"
   d="m 221.86927,59.735 c -9.919,0 -19.838,0 -29.757,0 -2.847,0 -5.695,0 -8.542,0 4.375,1.445 8.75,2.89 13.124,4.335 0.303,0.1 0.087,2.543 0.087,2.895 0,0.495 0,0.991 0,1.486 0,0.025 0.539,0.012 0.583,0.012 2.885,0 5.77,0 8.654,0 0.831,0 1.663,0 2.494,0 0.573,0 0.268,-1.172 0.268,-1.623 0,-0.282 -0.186,-1.941 0.083,-2.044 0.621,-0.237 1.242,-0.475 1.863,-0.712 3.795,-1.449 7.591,-2.899 11.386,-4.349"
   style="fill:none;stroke:#000000;stroke-width:0.1212;stroke-linecap:square;stroke-miterlimit:10" /><path
   id="path205"
   d="m 175.69227,59.614 c 0,2.432 0,4.863 0,7.295 0,0.199 0.091,0.534 -0.099,0.638 -0.442,0.241 -0.957,0.442 -1.345,0.766 -0.835,0.696 -1.678,1.385 -2.5,2.098 -0.458,0.397 -0.916,0.794 -1.374,1.191 -0.332,0.287 -0.532,1.047 -0.73,1.443 -0.285,0.57 -0.297,0.509 -0.937,0.509 -0.156,0 -1.257,0.078 -1.257,-0.059 0,-2.391 0,-4.78 0,-7.171 0,-2.276 0,-4.554 0,-6.831 2.747,0.04 5.495,0.081 8.242,0.121"
   style="fill-rule:evenodd" /><path
   id="path207"
   d="m 175.69227,59.614 c 0,2.432 0,4.863 0,7.295 0,0.199 0.091,0.534 -0.099,0.638 -0.442,0.241 -0.957,0.442 -1.345,0.766 -0.835,0.696 -1.678,1.385 -2.5,2.098 -0.458,0.397 -0.916,0.794 -1.374,1.191 -0.332,0.287 -0.532,1.047 -0.73,1.443 -0.285,0.57 -0.297,0.509 -0.937,0.509 -0.156,0 -1.257,0.078 -1.257,-0.059 0,-2.391 0,-4.78 0,-7.171 0,-2.276 0,-4.554 0,-6.831"
   style="fill:none;stroke:#000000;stroke-width:0.1212;stroke-linecap:square;stroke-miterlimit:10" /><path
   id="path209"
   d="m 143.21027,73.554 c 0,-1.216 0,-2.433 0,-3.648 0,-0.914 0.119,-1.936 -0.103,-2.82 -0.267,-1.068 -2.85,-0.683 -3.75,-0.683 -5.828,0 -11.656,0 -17.483,0 -2.136,0 -4.271,0 -6.407,0 -0.494,0 -1.131,-0.117 -1.587,0 -1.004,0.259 -1.256,1.391 -1.334,2.304 -0.103,1.197 0,2.447 0,3.648 0,0.976 0.018,1.838 0.465,2.731 0.534,1.069 2.686,0.771 3.719,0.771 5.818,0 11.636,0 17.454,0 2.076,0 4.152,0 6.229,0 0.553,0 1.081,-0.121 1.632,-0.121 1.152,-0.001 1.165,-1.397 1.165,-2.182"
   style="fill-rule:evenodd" /><path
   id="path211"
   d="m 143.21027,73.554 c 0,-1.216 0,-2.433 0,-3.648 0,-0.914 0.119,-1.936 -0.103,-2.82 -0.267,-1.068 -2.85,-0.683 -3.75,-0.683 -5.828,0 -11.656,0 -17.483,0 -2.136,0 -4.271,0 -6.407,0 -0.494,0 -1.131,-0.117 -1.587,0 -1.004,0.259 -1.256,1.391 -1.334,2.304 -0.103,1.197 0,2.447 0,3.648 0,0.976 0.018,1.838 0.465,2.731 0.534,1.069 2.686,0.771 3.719,0.771 5.818,0 11.636,0 17.454,0 2.076,0 4.152,0 6.229,0 0.553,0 1.081,-0.121 1.632,-0.121 1.152,-0.001 1.165,-1.397 1.165,-2.182"
   style="fill:none;stroke:#000000;stroke-width:0.1212;stroke-linecap:square;stroke-miterlimit:10" /><path
   id="path213"
   d="m 143.21027,73.554 c 0,-1.216 0,-2.433 0,-3.648 0,-0.914 0.119,-1.936 -0.103,-2.82 -0.267,-1.068 -2.85,-0.683 -3.75,-0.683 -5.828,0 -11.656,0 -17.483,0 -2.136,0 -4.271,0 -6.407,0 -0.494,0 -1.131,-0.117 -1.587,0 -1.004,0.259 -1.256,1.391 -1.334,2.304 -0.103,1.197 0,2.447 0,3.648 0,0.976 0.018,1.838 0.465,2.731 0.534,1.069 2.686,0.771 3.719,0.771 5.818,0 11.636,0 17.454,0 2.076,0 4.152,0 6.229,0 0.553,0 1.081,-0.121 1.632,-0.121 1.152,-0.001 1.165,-1.397 1.165,-2.182"
   style="fill:none;stroke:#000000;stroke-width:0.1212;stroke-linecap:square;stroke-miterlimit:10" /><path
   id="path215"
   d="m 143.21027,73.554 c 0,-1.216 0,-2.433 0,-3.648 0,-0.914 0.119,-1.936 -0.103,-2.82 -0.267,-1.068 -2.85,-0.683 -3.75,-0.683 -5.828,0 -11.656,0 -17.483,0 -2.136,0 -4.271,0 -6.407,0 -0.494,0 -1.131,-0.117 -1.587,0 -1.004,0.259 -1.256,1.391 -1.334,2.304 -0.103,1.197 0,2.447 0,3.648 0,0.976 0.018,1.838 0.465,2.731 0.534,1.069 2.686,0.771 3.719,0.771 5.818,0 11.636,0 17.454,0 2.076,0 4.152,0 6.229,0 0.553,0 1.081,-0.121 1.632,-0.121 1.152,-0.001 1.165,-1.397 1.165,-2.182"
   style="fill:none;stroke:#000000;stroke-width:0.1212;stroke-linecap:square;stroke-miterlimit:10" /><path
   id="path217"
   d="m 113.64227,77.19 c -2.964,0.002 -5.701,-2.267 -5.701,-5.338"
   style="fill:none;stroke:#000000;stroke-width:0.1212;stroke-linecap:square;stroke-miterlimit:10" /><path
   id="path219"
   d="m 114.00727,79.009 c -4.096,0 -7.762,-3.196 -7.762,-7.4"
   style="fill:none;stroke:#000000;stroke-width:0.1212;stroke-linecap:square;stroke-miterlimit:10" /><line
   id="line221"
   y2="59.735001"
   x2="107.82027"
   y1="71.613998"
   x1="107.82027"
   style="fill:none;stroke:#000000;stroke-width:0.1212;stroke-linecap:square;stroke-miterlimit:10" /><line
   id="line223"
   y2="59.735001"
   x2="106.36627"
   y1="71.856003"
   x1="106.36627"
   style="fill:none;stroke:#000000;stroke-width:0.1212;stroke-linecap:square;stroke-miterlimit:10" /><line
   id="line225"
   y2="77.190002"
   x2="142.24127"
   y1="77.190002"
   x1="113.51727"
   style="fill:none;stroke:#000000;stroke-width:0.1212;stroke-linecap:square;stroke-miterlimit:10" /><line
   id="line227"
   y2="78.888"
   x2="142.36327"
   y1="78.888"
   x1="114.24327"
   style="fill:none;stroke:#000000;stroke-width:0.1212;stroke-linecap:square;stroke-miterlimit:10" /><line
   id="line229"
   y2="77.190002"
   x2="142.36327"
   y1="78.888"
   x1="142.36327"
   style="fill:none;stroke:#000000;stroke-width:0.1212;stroke-linecap:square;stroke-miterlimit:10" /><path
   id="path231"
   d="m 131.93927,59.978 c -0.489,0.566 -0.979,1.133 -1.468,1.699 -0.338,0.392 -0.835,0.733 -0.835,1.265 0,0.92 0,1.841 0,2.761 0,0.105 0.075,0.618 0,0.7 -0.11,0.121 -1.021,0 -1.187,0 -0.896,0 -0.995,0.199 -0.995,-0.681 0,-0.932 0,-1.863 0,-2.795 0,-0.571 -0.317,-0.809 -0.676,-1.268 -0.502,-0.642 -1.004,-1.282 -1.506,-1.924 2.263,0 4.524,0 6.787,0 -0.129,0.065 -0.234,0.176 -0.363,0.242 0.082,0.001 0.162,0.001 0.243,0.001"
   style="fill-rule:evenodd" /><path
   id="path233"
   d="m 131.93927,59.978 c -0.489,0.566 -0.979,1.133 -1.468,1.699 -0.338,0.392 -0.835,0.733 -0.835,1.265 0,0.92 0,1.841 0,2.761 0,0.105 0.075,0.618 0,0.7 -0.11,0.121 -1.021,0 -1.187,0 -0.896,0 -0.995,0.199 -0.995,-0.681 0,-0.932 0,-1.863 0,-2.795 0,-0.571 -0.317,-0.809 -0.676,-1.268 -0.502,-0.642 -1.004,-1.282 -1.506,-1.924 2.263,0 4.524,0 6.787,0 -0.119,0.079 -0.236,0.177 -0.363,0.242"
   style="fill:none;stroke:#000000;stroke-width:0.1212;stroke-linecap:square;stroke-miterlimit:10" /><path
   id="path235"
   d="m 151.69527,81.796 c 0.088,-0.526 0.203,-1.015 0.35,-1.528 0.113,-0.395 0.72,-0.984 0.957,-1.34 0.545,-0.813 1.997,-1.102 2.889,-1.229 2.061,-0.295 4.124,1.653 4.441,3.559 0.346,2.07 -1.404,4.249 -3.473,4.545 -2.225,0.317 -4.367,-0.911 -4.995,-3.111 -0.083,-0.293 -0.12,-0.596 -0.169,-0.896"
   style="fill-rule:evenodd;stroke:#ffffff;stroke-width:0.1212;stroke-linecap:square;stroke-miterlimit:10" /><line
   id="line237"
   y2="81.790001"
   x2="151.69527"
   y1="81.792999"
   x1="151.69527"
   style="fill:none;stroke:#000000;stroke-width:0.1212;stroke-linecap:square;stroke-miterlimit:10" /><path
   id="path239"
   d="m 157.02727,79.13 c 0,-4.975 0,-9.95 0,-14.925 0,-1.079 0,-2.157 0,-3.236 0,-0.943 -0.027,-0.748 -1.065,-0.748 -0.99,0 -0.872,-0.071 -0.872,0.835 0,1.105 0,2.211 0,3.316 0,3.592 0,7.183 0,10.773 0,1.156 0,2.312 0,3.469 0,0.071 -0.054,0.463 0,0.516 0.215,0.212 1.6,0 1.937,0"
   style="fill-rule:evenodd" /><path
   id="path241"
   d="m 157.02727,79.13 c -0.491,0 -1.938,0.342 -1.938,-0.269 0,-0.87 0,-1.741 0,-2.611 0,-3.111 0,-6.224 0,-9.335 0,-2.187 0,-4.374 0,-6.561 0,-0.392 1.938,-0.022 1.938,-0.108 0,0.63 0,1.26 0,1.891 0,5.664 0,11.329 0,16.993"
   style="fill:none;stroke:#000000;stroke-width:0.1212;stroke-linecap:square;stroke-miterlimit:10" /><path
   id="path243"
   d="m 228.29327,59.372 c 0,-8.386 0,-16.771 0,-25.157 0,-10.807 0,-21.614 0,-32.421 0,-0.424 0.259,-1.696 -0.255,-1.696 -1.365,0 -2.73,0 -4.095,0 -0.335,0 -0.255,0.038 -0.255,0.349 0,3.419 0,6.838 0,10.257 0,12.421 0,24.843 0,37.264 0,3.236 0,6.472 0,9.708 0,0.558 0,1.115 0,1.673 -10e-4,0.046 4.148,0.023 4.605,0.023"
   style="fill:#ffffff;fill-rule:evenodd" /><path
   id="path245"
   d="m 228.29327,59.372 c -1.231,0 -2.461,0 -3.692,0 -0.34,0 -0.913,0.219 -0.913,-0.197 0,-1.076 0,-2.151 0,-3.228 0,-4.993 0,-9.986 0,-14.979 0,-11.937 0,-23.874 0,-35.811 0,-1.429 0,-2.857 0,-4.286 0,-0.25 0,-0.5 0,-0.75 0,-0.047 2.58,-0.022 2.793,-0.022 0.217,0 1.812,-0.13 1.812,0.088 0,0.318 0,0.636 0,0.954 0,1.54 0,3.08 0,4.619 0,12.045 0,24.089 0,36.134 0,5.826 0,11.652 0,17.478"
   style="fill:none;stroke:#000000;stroke-width:0.1212;stroke-linecap:square;stroke-miterlimit:10" /><path
   id="path247"
   d="m 318.34427,18.038 c 0.002,-3.919 0.003,-7.838 0.005,-11.757 2.079,0.003 3.674,1.639 4.653,3.318 1.466,2.518 2.006,5.547 2.008,8.43 -2.222,0.003 -4.443,0.006 -6.666,0.009"
   style="fill:#444444;fill-rule:evenodd;stroke:#ffffff;stroke-width:0.1212;stroke-linecap:square;stroke-miterlimit:10" /><path
   id="path249"
   d="m 318.35027,6.281 c 3.699,0.005 6.658,5.224 6.661,11.748"
   style="fill:none;stroke:#000000;stroke-width:0.1212;stroke-linecap:square;stroke-miterlimit:10" /><path
   id="path251"
   d="m 318.34427,6.281 c 0,3.415 0,6.829 0,10.243 0,0.492 0,0.983 0,1.475 0,0.087 1.312,0.039 1.44,0.039 1.742,0 3.484,0 5.226,0"
   style="fill:none;stroke:#000000;stroke-width:0.1212;stroke-linecap:square;stroke-miterlimit:10" /><path
   id="path253"
   d="m 316.28427,13.675 c 0,1.293 0,2.585 0,3.878 -0.375,-0.219 -1.058,-0.833 -1.484,-0.849 -0.352,-0.014 -0.704,-0.027 -1.056,-0.041 -1.782,-0.069 -3.565,-0.138 -5.347,-0.208 -3.067,-0.119 -6.135,-0.238 -9.202,-0.357 0,0.409 0.09,0.65 -0.22,0.916 -0.333,0.286 -0.491,0.656 -0.849,0.35 -0.202,-0.173 -0.628,-0.383 -0.628,-0.668 0,-0.535 0,-1.07 0,-1.604 0,-0.225 -0.217,-2.18 0.522,-2.015 0.135,0.03 1.053,0.168 1.053,0.266 0,0.434 0,0.868 0,1.302 3.052,-0.115 6.104,-0.229 9.156,-0.344 1.853,-0.07 3.706,-0.14 5.559,-0.209 0.43,-0.016 0.86,-0.032 1.29,-0.048 0.409,-0.016 0.907,-0.709 1.206,-0.974 0,0.323 0,0.646 0,0.97 0,-0.123 0,-0.244 0,-0.365"
   style="fill:#848484;fill-rule:evenodd" /><path
   id="path255"
   d="m 316.28427,13.675 c 0,1.293 0,2.585 0,3.878 -0.375,-0.219 -1.058,-0.833 -1.484,-0.849 -0.352,-0.014 -0.704,-0.027 -1.056,-0.041 -1.782,-0.069 -3.565,-0.138 -5.347,-0.208 -3.067,-0.119 -6.135,-0.238 -9.202,-0.357 0,0.409 0.09,0.65 -0.22,0.916 -0.333,0.286 -0.491,0.656 -0.849,0.35 -0.202,-0.173 -0.628,-0.383 -0.628,-0.668 0,-0.535 0,-1.07 0,-1.604 0,-0.225 -0.217,-2.18 0.522,-2.015 0.135,0.03 1.053,0.168 1.053,0.266 0,0.434 0,0.868 0,1.302 3.052,-0.115 6.104,-0.229 9.156,-0.344 1.853,-0.07 3.706,-0.14 5.559,-0.209 0.43,-0.016 0.86,-0.032 1.29,-0.048 0.409,-0.016 0.907,-0.709 1.206,-0.974 0,0.323 0,0.646 0,0.97"
   style="fill:none;stroke:#000000;stroke-width:0.1212;stroke-linecap:square;stroke-miterlimit:10" /><path
   id="path257"
   d="m 325.49527,18.523 c 0,-0.688 0.038,-0.606 -0.603,-0.606 -0.875,0 -1.75,0 -2.625,0 -0.995,0 -1.99,0 -2.985,0 -0.214,0 -1.259,-0.153 -1.423,0 -0.047,0.044 -0.003,0.606 0.026,0.606 0.192,0 0.384,0 0.576,0 0.875,0 1.75,0 2.625,0 1.47,0 2.94,0 4.409,0"
   style="fill-rule:evenodd" /><path
   id="path259"
   d="m 325.49527,18.523 c -1.404,0 -2.808,0 -4.212,0 -0.901,0 -1.802,0 -2.704,0 -0.22,0 -0.44,0 -0.661,0 -0.11,0 -0.113,-0.555 -0.059,-0.606 0.146,-0.137 1.078,0 1.268,0 0.981,0 1.963,0 2.944,0 0.901,0 1.802,0 2.704,0 0.695,0 0.72,-0.135 0.72,0.606"
   style="fill:none;stroke:#000000;stroke-width:0.1212;stroke-linecap:square;stroke-miterlimit:10" /><path
   id="path261"
   d="m 302.71027,62.038 c 0,-9.96 0,-19.92 0,-29.88 0,-1.268 0,-2.535 0,-3.803 0,-2.059 -0.151,-4.279 -2.545,-4.863 -0.801,-0.195 -1.67,-0.121 -2.486,-0.121 -1.181,0 -2.361,0 -3.542,0 -2.348,0 -4.697,0 -7.045,0 -1.119,0 -1.846,0.353 -2.793,0.894 -0.642,0.367 -1.047,1.962 -1.105,2.655 -0.103,1.239 -0.118,2.438 -0.118,3.682 0,5.758 0,11.516 0,17.274 0,4.634 0,9.269 0,13.904 0,1.312 0.295,3.795 1.605,4.357 0.984,0.423 1.832,0.701 2.909,0.82 0.789,0.088 1.585,0.051 2.378,0.051 2.927,0 5.91,0.18 8.827,-0.085 1.083,-0.098 2.621,-0.438 3.188,-1.431 0.661,-1.155 0.727,-2.135 0.727,-3.454"
   style="fill:#848484;fill-rule:evenodd" /><path
   id="path263"
   d="m 302.71027,62.038 c 0,-9.96 0,-19.92 0,-29.88 0,-1.268 0,-2.535 0,-3.803 0,-2.059 -0.151,-4.279 -2.545,-4.863 -0.801,-0.195 -1.67,-0.121 -2.486,-0.121 -1.181,0 -2.361,0 -3.542,0 -2.348,0 -4.697,0 -7.045,0 -1.119,0 -1.846,0.353 -2.793,0.894 -0.642,0.367 -1.047,1.962 -1.105,2.655 -0.103,1.239 -0.118,2.438 -0.118,3.682 0,5.758 0,11.516 0,17.274 0,4.634 0,9.269 0,13.904 0,1.312 0.295,3.795 1.605,4.357 0.984,0.423 1.832,0.701 2.909,0.82 0.789,0.088 1.585,0.051 2.378,0.051 2.927,0 5.91,0.18 8.827,-0.085 1.083,-0.098 2.621,-0.438 3.188,-1.431 0.661,-1.155 0.727,-2.135 0.727,-3.454"
   style="fill:none;stroke:#000000;stroke-width:0.1212;stroke-linecap:square;stroke-miterlimit:10" /><path
   id="path265"
   d="m 302.71027,62.038 c 0,-9.96 0,-19.92 0,-29.88 0,-1.268 0,-2.535 0,-3.803 0,-2.059 -0.151,-4.279 -2.545,-4.863 -0.801,-0.195 -1.67,-0.121 -2.486,-0.121 -1.181,0 -2.361,0 -3.542,0 -2.348,0 -4.697,0 -7.045,0 -1.119,0 -1.846,0.353 -2.793,0.894 -0.642,0.367 -1.047,1.962 -1.105,2.655 -0.103,1.239 -0.118,2.438 -0.118,3.682 0,5.758 0,11.516 0,17.274 0,4.634 0,9.269 0,13.904 0,1.312 0.295,3.795 1.605,4.357 0.984,0.423 1.832,0.701 2.909,0.82 0.789,0.088 1.585,0.051 2.378,0.051 2.927,0 5.91,0.18 8.827,-0.085 1.083,-0.098 2.621,-0.438 3.188,-1.431 0.661,-1.155 0.727,-2.135 0.727,-3.454"
   style="fill:none;stroke:#000000;stroke-width:0.1212;stroke-linecap:square;stroke-miterlimit:10" /><path
   id="path267"
   d="m 302.71027,62.038 c 0,-9.96 0,-19.92 0,-29.88 0,-1.268 0,-2.535 0,-3.803 0,-2.059 -0.151,-4.279 -2.545,-4.863 -0.801,-0.195 -1.67,-0.121 -2.486,-0.121 -1.181,0 -2.361,0 -3.542,0 -2.348,0 -4.697,0 -7.045,0 -1.119,0 -1.846,0.353 -2.793,0.894 -0.642,0.367 -1.047,1.962 -1.105,2.655 -0.103,1.239 -0.118,2.438 -0.118,3.682 0,5.758 0,11.516 0,17.274 0,4.634 0,9.269 0,13.904 0,1.312 0.295,3.795 1.605,4.357 0.984,0.423 1.832,0.701 2.909,0.82 0.789,0.088 1.585,0.051 2.378,0.051 2.927,0 5.91,0.18 8.827,-0.085 1.083,-0.098 2.621,-0.438 3.188,-1.431 0.661,-1.155 0.727,-2.135 0.727,-3.454"
   style="fill:#d40000;fill-opacity:1;fill-rule:evenodd" /><path
   id="path269"
   d="m 302.71027,62.038 c 0,-9.96 0,-19.92 0,-29.88 0,-1.268 0,-2.535 0,-3.803 0,-2.059 -0.151,-4.279 -2.545,-4.863 -0.801,-0.195 -1.67,-0.121 -2.486,-0.121 -1.181,0 -2.361,0 -3.542,0 -2.348,0 -4.697,0 -7.045,0 -1.119,0 -1.846,0.353 -2.793,0.894 -0.642,0.367 -1.047,1.962 -1.105,2.655 -0.103,1.239 -0.118,2.438 -0.118,3.682 0,5.758 0,11.516 0,17.274 0,4.634 0,9.269 0,13.904 0,1.312 0.295,3.795 1.605,4.357 0.984,0.423 1.832,0.701 2.909,0.82 0.789,0.088 1.585,0.051 2.378,0.051 2.927,0 5.91,0.18 8.827,-0.085 1.083,-0.098 2.621,-0.438 3.188,-1.431 0.661,-1.155 0.727,-2.135 0.727,-3.454"
   style="fill:none;stroke:#000000;stroke-width:0.1212;stroke-linecap:square;stroke-miterlimit:10" /><path
   id="path271"
   d="m 338.46427,41.554 c -1.84,-4.556 -3.68,-9.111 -5.521,-13.667 -0.122,-0.301 -1.744,-4.668 -1.897,-4.63 -0.606,0.151 -1.213,0.303 -1.82,0.455 -0.295,0.074 -0.472,1.158 -0.569,1.449 -0.099,0.297 0.501,1.272 0.614,1.545 1.482,3.604 2.964,7.207 4.445,10.81 0.371,0.9 0.741,1.801 1.111,2.701 0.513,1.249 2.507,1.368 3.637,1.337"
   style="fill-rule:evenodd" /><path
   id="path273"
   d="m 338.46427,41.554 c -1.84,-4.556 -3.68,-9.111 -5.521,-13.667 -0.122,-0.301 -1.744,-4.668 -1.897,-4.63 -0.606,0.151 -1.213,0.303 -1.82,0.455 -0.295,0.074 -0.472,1.158 -0.569,1.449 -0.099,0.297 0.501,1.272 0.614,1.545 1.461,3.554 2.923,7.108 4.385,10.663 0.39,0.947 0.779,1.893 1.168,2.839 0.532,1.293 2.268,1.204 3.399,1.346"
   style="fill:none;stroke:#000000;stroke-width:0.1212;stroke-linecap:square;stroke-miterlimit:10" /><path
   id="path275"
   d="m 328.64627,23.129 c 2.343,0.444 4.687,0.889 7.03,1.333 -0.367,-0.513 -0.733,-1.027 -1.1,-1.54 -0.289,-0.404 -0.823,-0.659 -1.223,-0.941 -0.911,-0.643 -1.831,-1.117 -2.861,-1.559 -0.521,-0.223 -1.086,-0.572 -1.64,-0.695 -0.305,-0.068 -0.61,-0.136 -0.916,-0.204 -0.25,-0.056 -0.232,0.275 -0.298,0.489 -0.182,0.59 -0.428,0.896 -0.096,1.409 0.368,0.57 0.736,1.139 1.104,1.708"
   style="fill:#848484;fill-rule:evenodd" /><path
   id="path277"
   d="m 328.64627,23.129 c 2.343,0.444 4.687,0.889 7.03,1.333 -0.367,-0.513 -0.733,-1.027 -1.1,-1.54 -0.289,-0.404 -0.823,-0.659 -1.223,-0.941 -0.911,-0.643 -1.831,-1.117 -2.861,-1.559 -0.521,-0.223 -1.086,-0.572 -1.64,-0.695 -0.305,-0.068 -0.61,-0.136 -0.916,-0.204 -0.25,-0.056 -0.232,0.275 -0.298,0.489 -0.182,0.59 -0.428,0.896 -0.096,1.409 0.368,0.57 0.736,1.139 1.104,1.708"
   style="fill:none;stroke:#000000;stroke-width:0.1212;stroke-linecap:square;stroke-miterlimit:10" /><path
   id="path279"
   d="m 325.13227,23.614 c -4.826,0 -9.652,0 -14.478,0 -0.629,0 -1.467,-0.02 -1.833,0.528 -0.297,0.447 -0.657,0.774 -0.657,1.319 0,0.139 0,0.278 0,0.417 0,1.707 0,3.415 0,5.122 0,6.214 0,12.429 0,18.643 0,1.973 0,3.947 0,5.92 0,0.516 0.038,0.733 0.399,1.186 0.503,0.629 0.882,0.683 1.625,0.683 5.507,0 11.013,0 16.52,0 1.16,0 2.321,0 3.481,0 0.401,0 0.975,0.107 1.366,0 1.415,-0.389 0.848,-3.981 0.848,-5.015 0,-3.017 0,-6.034 0,-9.051 0,-1.33 -0.246,-2.427 -0.664,-3.689 -1.591,-4.813 -3.183,-9.626 -4.774,-14.439 -0.236,-0.714 -1.08,-1.515 -1.833,-1.624"
   style="fill:#d40000;fill-opacity:1;fill-rule:evenodd" /><path
   id="path281"
   d="m 325.13227,23.614 c -4.826,0 -9.652,0 -14.478,0 -0.629,0 -1.467,-0.02 -1.833,0.528 -0.297,0.447 -0.657,0.774 -0.657,1.319 0,0.139 0,0.278 0,0.417 0,1.707 0,3.415 0,5.122 0,6.214 0,12.429 0,18.643 0,1.973 0,3.947 0,5.92 0,0.516 0.038,0.733 0.399,1.186 0.503,0.629 0.882,0.683 1.625,0.683 5.507,0 11.013,0 16.52,0 1.16,0 2.321,0 3.481,0 0.401,0 0.975,0.107 1.366,0 1.415,-0.389 0.848,-3.981 0.848,-5.015 0,-3.017 0,-6.034 0,-9.051 0,-1.33 -0.246,-2.427 -0.664,-3.689 -1.591,-4.813 -3.183,-9.626 -4.774,-14.439 -0.084,-0.256 -0.341,-0.457 -0.465,-0.704 -0.233,-0.467 -0.672,-0.438 -1.005,-0.799"
   style="fill:none;stroke:#000000;stroke-width:0.1212;stroke-linecap:square;stroke-miterlimit:10" /><path
   id="path283"
   d="m 324.52627,25.311 c -2.228,0 -4.455,0 -6.683,0 -1.493,0 -2.985,0 -4.478,0 -0.651,0 -1.351,-0.076 -1.996,0.031 -0.696,0.116 -0.691,0.395 -1.007,1.026 -0.104,0.208 -0.017,0.594 -0.017,0.846 0,1.087 0,2.174 0,3.26 0,2.695 0,5.39 0,8.084 0,0.755 0.434,1.419 1.224,1.419 0.64,0 1.28,0 1.92,0 3.036,0 6.071,0 9.106,0 2.089,0 4.178,0 6.266,0 1.682,0 -0.104,-3.865 -0.301,-4.474 -0.75,-2.317 -1.5,-4.635 -2.249,-6.953 -0.217,-0.672 -0.435,-1.344 -0.652,-2.016 -0.229,-0.708 -0.385,-1.074 -1.133,-1.223"
   style="fill-rule:evenodd" /><path
   id="path285"
   d="m 324.52627,25.311 c -2.228,0 -4.455,0 -6.683,0 -1.493,0 -2.985,0 -4.478,0 -0.651,0 -1.351,-0.076 -1.996,0.031 -0.696,0.116 -0.691,0.395 -1.007,1.026 -0.104,0.208 -0.017,0.594 -0.017,0.846 0,1.087 0,2.174 0,3.26 0,2.695 0,5.39 0,8.084 0,0.755 0.434,1.419 1.224,1.419 0.64,0 1.28,0 1.92,0 3.036,0 6.071,0 9.106,0 2.089,0 4.178,0 6.266,0 1.682,0 -0.104,-3.865 -0.301,-4.474 -0.75,-2.317 -1.5,-4.635 -2.249,-6.953 -0.217,-0.672 -0.435,-1.344 -0.652,-2.016 -0.229,-0.708 -0.385,-1.074 -1.133,-1.223"
   style="fill:none;stroke:#000000;stroke-width:0.1212;stroke-linecap:square;stroke-miterlimit:10" /><path
   id="path287"
   d="m 324.04127,42.281 c 0,-4.993 0,-9.985 0,-14.978 0,-0.818 0,-1.637 0,-2.455 0,-0.274 -1.212,-0.353 -1.212,0.043 0,2.337 0,4.674 0,7.012 0,2.593 0,5.187 0,7.78 0,0.751 0,1.501 0,2.252 0,0.644 0.648,0.346 1.212,0.346"
   style="fill:#ffffff;fill-rule:evenodd" /><path
   id="path289"
   d="m 324.04127,42.281 c -0.127,0 -1.212,0.013 -1.212,-0.012 0,-0.206 0,-0.411 0,-0.617 0,-1.078 0,-2.156 0,-3.234 0,-3.168 0,-6.337 0,-9.506 0,-1.135 0,-2.271 0,-3.406 0,-0.242 0,-0.484 0,-0.726 0,-0.179 0.912,-0.074 1.086,-0.074 0.27,0 0.126,4.825 0.126,5.282 0,4.097 0,8.195 0,12.293"
   style="fill:none;stroke:#000000;stroke-width:0.1212;stroke-linecap:square;stroke-miterlimit:10" /><path
   id="path291"
   d="m 314.46627,43.25 c 0,-0.181 0,-0.362 0,-0.543 0,-0.336 0.018,-0.217 -0.243,-0.305 -0.317,-0.107 -0.854,0 -1.185,0 -0.533,0 -1.943,-0.287 -2.208,0.242 -0.513,1.024 0.969,0.849 1.428,0.849 0.38,0 2.117,0.258 2.208,-0.243"
   style="fill:#ffffff;fill-rule:evenodd" /><path
   id="path293"
   d="m 314.46627,43.25 c 0,-0.181 0,-0.362 0,-0.543 0,-0.336 0.018,-0.217 -0.243,-0.305 -0.317,-0.107 -0.854,0 -1.185,0 -0.533,0 -1.943,-0.287 -2.208,0.242 -0.513,1.024 0.969,0.849 1.428,0.849 0.38,0 2.117,0.258 2.208,-0.243"
   style="fill:none;stroke:#ffffff;stroke-width:0.1212;stroke-linecap:square;stroke-miterlimit:10" /><path
   id="path295"
   d="m 314.46627,43.25 c 0,-0.181 0,-0.362 0,-0.543 0,-0.336 0.018,-0.217 -0.243,-0.305 -0.317,-0.107 -0.854,0 -1.185,0 -0.533,0 -1.943,-0.287 -2.208,0.242 -0.513,1.024 0.969,0.849 1.428,0.849 0.38,0 2.117,0.258 2.208,-0.243"
   style="fill:none;stroke:#ffffff;stroke-width:0.1212;stroke-linecap:square;stroke-miterlimit:10" /><path
   id="path297"
   d="m 314.46627,43.25 c 0,-0.181 0,-0.362 0,-0.543 0,-0.336 0.018,-0.217 -0.243,-0.305 -0.317,-0.107 -0.854,0 -1.185,0 -0.533,0 -1.943,-0.287 -2.208,0.242 -0.513,1.024 0.969,0.849 1.428,0.849 0.38,0 2.117,0.258 2.208,-0.243"
   style="fill:none;stroke:#000000;stroke-width:0.1212;stroke-linecap:square;stroke-miterlimit:10" /><path
   id="path299"
   d="m 295.55927,38.039 c 0,-2.445 0,-4.89 0,-7.334 0,-0.907 0,-1.814 0,-2.722 0,-1.208 -0.489,-1.338 -1.598,-1.338 -1.053,0 -2.482,-0.263 -3.442,0.217 -0.556,0.278 -0.414,1.493 -0.414,2.015 0,2.83 0,5.66 0,8.489 0,1.227 0.348,2.007 1.732,2.007 1.292,-10e-4 3.722,0.512 3.722,-1.334"
   style="fill-rule:evenodd" /><path
   id="path301"
   d="m 295.55927,38.039 c 0,-2.445 0,-4.89 0,-7.334 0,-0.907 0,-1.814 0,-2.722 0,-1.208 -0.489,-1.338 -1.598,-1.338 -1.053,0 -2.482,-0.263 -3.442,0.217 -0.556,0.278 -0.414,1.493 -0.414,2.015 0,2.83 0,5.66 0,8.489 0,1.227 0.348,2.007 1.732,2.007 1.292,-10e-4 3.722,0.512 3.722,-1.334"
   style="fill:none;stroke:#000000;stroke-width:0.1212;stroke-linecap:square;stroke-miterlimit:10" /><path
   id="path303"
   d="m 295.55927,38.039 c 0,-2.445 0,-4.89 0,-7.334 0,-0.907 0,-1.814 0,-2.722 0,-1.208 -0.489,-1.338 -1.598,-1.338 -1.053,0 -2.482,-0.263 -3.442,0.217 -0.556,0.278 -0.414,1.493 -0.414,2.015 0,2.83 0,5.66 0,8.489 0,1.227 0.348,2.007 1.732,2.007 1.292,-10e-4 3.722,0.512 3.722,-1.334"
   style="fill:none;stroke:#000000;stroke-width:0.1212;stroke-linecap:square;stroke-miterlimit:10" /><path
   id="path305"
   d="m 295.55927,38.039 c 0,-2.445 0,-4.89 0,-7.334 0,-0.907 0,-1.814 0,-2.722 0,-1.208 -0.489,-1.338 -1.598,-1.338 -1.053,0 -2.482,-0.263 -3.442,0.217 -0.556,0.278 -0.414,1.493 -0.414,2.015 0,2.83 0,5.66 0,8.489 0,1.227 0.348,2.007 1.732,2.007 1.292,-10e-4 3.722,0.512 3.722,-1.334"
   style="fill:none;stroke:#000000;stroke-width:0.1212;stroke-linecap:square;stroke-miterlimit:10" /><path
   id="path307"
   d="m 322.95027,64.827 c 0,-1.239 0,-2.479 0,-3.719 0,-0.67 -0.551,-0.403 -1.162,-0.403 -2.953,0 -5.906,0 -8.859,0 -1.219,0 -2.438,0 -3.657,0 -0.926,0 -0.744,0.026 -0.744,1.01 0,0.295 -0.064,3.112 0.057,3.112 0.821,0 1.642,0 2.463,0 3.966,0 7.934,0 11.902,0"
   style="fill-rule:evenodd" /><path
   id="path309"
   d="m 322.95027,64.827 c -4.715,0 -9.429,0 -14.144,0 -0.625,0 -0.279,-1.668 -0.279,-2.161 0,-0.617 0,-1.235 0,-1.853 0,-0.186 0.175,-0.108 0.342,-0.108 2.653,0 5.305,0 7.958,0 1.948,0 3.896,0 5.845,0 0.547,0 0.279,0.731 0.279,1.188 -0.001,0.979 -0.001,1.957 -0.001,2.934"
   style="fill:none;stroke:#000000;stroke-width:0.1212;stroke-linecap:square;stroke-miterlimit:10" /><path
   id="path311"
   d="m 335.07027,66.281 c 0,-0.33 0.156,-1.297 -0.121,-1.575 -0.26,-0.26 -1.22,-0.122 -1.517,-0.122 -0.77,0 -1.54,0 -2.309,0 -0.537,0 -0.938,-0.022 -1.022,0.606 -0.039,0.294 -0.131,1.324 0.121,1.576 0.259,0.26 1.221,0.121 1.517,0.121 0.77,0 1.54,0 2.309,0 0.581,0.001 0.869,0.008 1.022,-0.606"
   style="fill:#a3a3a3;fill-rule:evenodd" /><path
   id="path313"
   d="m 335.07027,66.281 c 0,-0.33 0.156,-1.297 -0.121,-1.575 -0.26,-0.26 -1.22,-0.122 -1.517,-0.122 -0.77,0 -1.54,0 -2.309,0 -0.537,0 -0.938,-0.022 -1.022,0.606 -0.039,0.294 -0.131,1.324 0.121,1.576 0.259,0.26 1.221,0.121 1.517,0.121 0.77,0 1.54,0 2.309,0 0.581,0.001 0.869,0.008 1.022,-0.606"
   style="fill:none;stroke:#000000;stroke-width:0.1212;stroke-linecap:square;stroke-miterlimit:10" /><path
   id="path315"
   d="m 335.07027,66.281 c 0,-0.33 0.156,-1.297 -0.121,-1.575 -0.26,-0.26 -1.22,-0.122 -1.517,-0.122 -0.77,0 -1.54,0 -2.309,0 -0.537,0 -0.938,-0.022 -1.022,0.606 -0.039,0.294 -0.131,1.324 0.121,1.576 0.259,0.26 1.221,0.121 1.517,0.121 0.77,0 1.54,0 2.309,0 0.581,0.001 0.869,0.008 1.022,-0.606"
   style="fill:none;stroke:#000000;stroke-width:0.1212;stroke-linecap:square;stroke-miterlimit:10" /><path
   id="path317"
   d="m 335.07027,66.281 c 0,-0.33 0.156,-1.297 -0.121,-1.575 -0.26,-0.26 -1.22,-0.122 -1.517,-0.122 -0.77,0 -1.54,0 -2.309,0 -0.537,0 -0.938,-0.022 -1.022,0.606 -0.039,0.294 -0.131,1.324 0.121,1.576 0.259,0.26 1.221,0.121 1.517,0.121 0.77,0 1.54,0 2.309,0 0.581,0.001 0.869,0.008 1.022,-0.606"
   style="fill:none;stroke:#000000;stroke-width:0.1212;stroke-linecap:square;stroke-miterlimit:10" /><path
   id="path319"
   d="m 297.37727,84.221 c 0.242,-1.214 1.136,-2.546 2.545,-2.546 1.226,0 2.545,1.32 2.545,2.546 0,1.225 -1.319,2.546 -2.545,2.546 -1.409,0 -2.303,-1.332 -2.545,-2.546"
   style="fill:#e0e0e0;fill-rule:evenodd;stroke:#ffffff;stroke-width:0.1212;stroke-linecap:square;stroke-miterlimit:10" /><line
   id="line321"
   y2="84.217003"
   x2="297.37726"
   y1="84.219002"
   x1="297.37726"
   style="fill:none;stroke:#000000;stroke-width:0.1212;stroke-linecap:square;stroke-miterlimit:10" /><path
   id="path323"
   d="m 290.83227,84.221 c 0.242,-1.214 1.135,-2.546 2.545,-2.546 1.226,0 2.545,1.32 2.545,2.546 0,1.225 -1.32,2.546 -2.545,2.546 -1.409,0 -2.303,-1.332 -2.545,-2.546"
   style="fill:#e0e0e0;fill-rule:evenodd;stroke:#ffffff;stroke-width:0.1212;stroke-linecap:square;stroke-miterlimit:10" /><line
   id="line325"
   y2="84.217003"
   x2="290.83228"
   y1="84.219002"
   x1="290.83228"
   style="fill:none;stroke:#000000;stroke-width:0.1212;stroke-linecap:square;stroke-miterlimit:10" /><path
   id="path327"
   d="m 300.40727,76.1 c -0.024,2.321 -0.048,4.642 -0.072,6.963 -0.014,1.338 -0.027,2.675 -0.041,4.013 -0.003,0.255 -0.005,0.509 -0.008,0.764 -10e-4,0.141 -0.643,0.746 -0.8,0.746 -1.298,0 -2.597,0 -3.895,0 -0.615,0 -1.229,0 -1.843,0 -0.517,0 -0.528,-0.236 -0.829,-0.688 -0.266,-0.399 -0.027,-1.685 -0.027,-2.144 0,-1.555 0,-3.109 0,-4.663 0,-1.367 0,-2.734 0,-4.101 0,-0.284 0,-0.567 0,-0.851 0,-0.184 -0.243,0.029 -0.245,0.226 -0.028,2.743 -0.055,5.487 -0.083,8.23 -0.012,1.241 -0.733,4.475 1.288,4.475 1.462,0 2.924,0 4.386,0 0.429,0 0.857,0 1.286,0 0.315,0 0.966,-0.746 1.221,-0.95 0.206,-0.165 0.024,-1.571 0.024,-1.82 0,-1.466 0,-2.933 0,-4.399 0,-1.382 0,-2.763 0,-4.145 10e-4,-0.364 0.292,-1.881 -0.362,-1.656"
   style="fill:#ffffff;fill-rule:evenodd" /><path
   id="path329"
   d="m 300.40727,76.1 c -0.024,2.321 -0.048,4.642 -0.072,6.963 -0.014,1.338 -0.027,2.675 -0.041,4.013 -0.003,0.255 -0.005,0.509 -0.008,0.764 -10e-4,0.141 -0.643,0.746 -0.8,0.746 -1.298,0 -2.597,0 -3.895,0 -0.615,0 -1.229,0 -1.843,0 -0.517,0 -0.528,-0.236 -0.829,-0.688 -0.266,-0.399 -0.027,-1.685 -0.027,-2.144 0,-1.555 0,-3.109 0,-4.663 0,-1.367 0,-2.734 0,-4.101 0,-0.284 0,-0.567 0,-0.851 0,-0.184 -0.243,0.029 -0.245,0.226 -0.028,2.743 -0.055,5.487 -0.083,8.23 -0.012,1.241 -0.733,4.475 1.288,4.475 1.462,0 2.924,0 4.386,0 0.429,0 0.857,0 1.286,0 0.315,0 0.966,-0.746 1.221,-0.95 0.206,-0.165 0.024,-1.571 0.024,-1.82 0,-1.466 0,-2.933 0,-4.399 0,-1.382 0,-2.763 0,-4.145 10e-4,-0.364 0.292,-1.881 -0.362,-1.656"
   style="fill:none;stroke:#000000;stroke-width:0.1212;stroke-linecap:square;stroke-miterlimit:10" /><path
   id="path331"
   d="m 300.52827,82.888 c 0,-0.649 -0.121,-0.485 -0.731,-0.485 -0.844,0 -1.688,0 -2.533,0 -0.936,0 -1.871,0 -2.807,0 -0.202,0 -1.297,-0.15 -1.444,0 -0.05,0.051 -0.057,0.485 0.06,0.485 0.224,0 0.448,0 0.671,0 0.844,0 1.688,0 2.533,0 1.418,0 2.834,0 4.251,0"
   style="fill:#ffffff;fill-rule:evenodd" /><path
   id="path333"
   d="m 300.52827,82.888 c -1.351,0 -2.703,0 -4.054,0 -0.867,0 -1.735,0 -2.602,0 -0.251,0 -0.502,0 -0.753,0 -0.179,0 -0.193,-0.396 -0.106,-0.485 0.131,-0.135 1.108,0 1.287,0 0.922,0 1.844,0 2.767,0 0.867,0 1.735,0 2.602,0 0.645,-0.001 0.859,-0.201 0.859,0.485"
   style="fill:none;stroke:#000000;stroke-width:0.1212;stroke-linecap:square;stroke-miterlimit:10" /><path
   id="path335"
   d="m 317.98127,63.13 c 0,-0.18 0.079,-1.213 -0.094,-1.213 -0.434,0 -0.868,0 -1.301,0 -0.725,0 -1.449,0 -2.174,0 -0.46,0 -0.776,-0.128 -0.915,0.364 -0.349,1.238 0.518,1.212 1.396,1.212 0.373,0 3.229,0.249 3.088,-0.363"
   style="fill:#848484;fill-rule:evenodd" /><path
   id="path337"
   d="m 317.98127,63.13 c 0,-0.18 0.079,-1.213 -0.094,-1.213 -0.434,0 -0.868,0 -1.301,0 -0.725,0 -1.449,0 -2.174,0 -0.46,0 -0.776,-0.128 -0.915,0.364 -0.349,1.238 0.518,1.212 1.396,1.212 0.373,0 3.229,0.249 3.088,-0.363"
   style="fill:none;stroke:#000000;stroke-width:0.1212;stroke-linecap:square;stroke-miterlimit:10" /><path
   id="path339"
   d="m 317.98127,63.13 c 0,-0.18 0.079,-1.213 -0.094,-1.213 -0.434,0 -0.868,0 -1.301,0 -0.725,0 -1.449,0 -2.174,0 -0.46,0 -0.776,-0.128 -0.915,0.364 -0.349,1.238 0.518,1.212 1.396,1.212 0.373,0 3.229,0.249 3.088,-0.363"
   style="fill:none;stroke:#000000;stroke-width:0.1212;stroke-linecap:square;stroke-miterlimit:10" /><path
   id="path341"
   d="m 317.98127,63.13 c 0,-0.18 0.079,-1.213 -0.094,-1.213 -0.434,0 -0.868,0 -1.301,0 -0.725,0 -1.449,0 -2.174,0 -0.46,0 -0.776,-0.128 -0.915,0.364 -0.349,1.238 0.518,1.212 1.396,1.212 0.373,0 3.229,0.249 3.088,-0.363"
   style="fill:#ffffff;fill-rule:evenodd" /><path
   id="path343"
   d="m 317.98127,63.13 c 0,-0.18 0.079,-1.213 -0.094,-1.213 -0.434,0 -0.868,0 -1.301,0 -0.725,0 -1.449,0 -2.174,0 -0.46,0 -0.776,-0.128 -0.915,0.364 -0.349,1.238 0.518,1.212 1.396,1.212 0.373,0 3.229,0.249 3.088,-0.363"
   style="fill:none;stroke:#000000;stroke-width:0.1212;stroke-linecap:square;stroke-miterlimit:10" /><path
   id="path345"
   d="m 301.49827,54.888 c 0,-2.21 0,-4.42 0,-6.631 0,-1.043 0,-2.085 0,-3.128 0,-0.313 0.117,-0.544 -0.27,-0.544 -0.515,0 -1.035,-0.186 -1.185,0.364 -0.175,0.641 0,1.573 0,2.231 0,1.467 0,2.933 0,4.399 0,1.043 0,2.086 0,3.129 0,0.824 1.565,0.658 1.455,0.18"
   style="fill:#ffffff;fill-rule:evenodd" /><path
   id="path347"
   d="m 301.49827,54.888 c 0,-2.21 0,-4.42 0,-6.631 0,-1.043 0,-2.085 0,-3.128 0,-0.313 0.117,-0.544 -0.27,-0.544 -0.515,0 -1.035,-0.186 -1.185,0.364 -0.175,0.641 0,1.573 0,2.231 0,1.467 0,2.933 0,4.399 0,1.043 0,2.086 0,3.129 0,0.824 1.565,0.658 1.455,0.18"
   style="fill:none;stroke:#ffffff;stroke-width:0.1212;stroke-linecap:square;stroke-miterlimit:10" /><path
   id="path349"
   d="m 301.49827,54.888 c 0,-2.21 0,-4.42 0,-6.631 0,-1.043 0,-2.085 0,-3.128 0,-0.313 0.117,-0.544 -0.27,-0.544 -0.515,0 -1.035,-0.186 -1.185,0.364 -0.175,0.641 0,1.573 0,2.231 0,1.467 0,2.933 0,4.399 0,1.043 0,2.086 0,3.129 0,0.824 1.565,0.658 1.455,0.18"
   style="fill:none;stroke:#ffffff;stroke-width:0.1212;stroke-linecap:square;stroke-miterlimit:10" /><path
   id="path351"
   d="m 301.49827,54.888 c 0,-2.21 0,-4.42 0,-6.631 0,-1.043 0,-2.085 0,-3.128 0,-0.313 0.117,-0.544 -0.27,-0.544 -0.515,0 -1.035,-0.186 -1.185,0.364 -0.175,0.641 0,1.573 0,2.231 0,1.467 0,2.933 0,4.399 0,1.043 0,2.086 0,3.129 0,0.824 1.565,0.658 1.455,0.18"
   style="fill:none;stroke:#000000;stroke-width:0.1212;stroke-linecap:square;stroke-miterlimit:10" /><path
   id="path353"
   d="m 209.74927,35.008 c 0,-4.957 0,-9.915 0,-14.872 0,-3.656 0.233,-8.343 -4.121,-9.492 -1.772,-0.468 -3.582,-0.364 -5.396,-0.364 -2.179,0 -4.358,0 -6.538,0 -8.566,0 -17.133,0 -25.699,0 -12.124,0 -24.248,0 -36.373,0 -13.22,0 -26.44,0 -39.659999,0 -11.854,0 -23.707,0 -35.561,0 -8.024,0 -16.049,0 -24.073,0 -1.808,0 -3.614,0 -5.421,0 -0.282,0 -0.563,0 -0.846,0 -1.247,0 -2.256,0.083 -3.474,0.344 -1.084,0.232 -1.847,0.713 -2.736,1.336 -0.58,0.407 -1.282,1.996 -1.371,2.663 -0.159,1.197 -0.304,2.394 -0.437,3.594 -0.197,1.776 -0.034,3.645 -0.034,5.428 0,4.71 -0.317,9.5 0.35,14.174 0.162,1.139 0.563,2.103 1.155,3.089 0.585,0.976 1.734,1.338 2.752,1.762 1.071,0.446 2.926,0.58 4.083,0.58 1.293,0 2.586,0 3.88,0 7.265,0 14.529,0 21.794,0 11.451,0 22.902,0 34.354,0 13.175,0 26.348999,0 39.522999,0 12.436,0 24.872,0 37.308,0 9.235,0 18.47,0 27.705,0 2.647,0 5.295,0 7.942,0 0.935,0 1.925,0.094 2.856,-0.009 1.236,-0.137 2.469,-0.282 3.701,-0.447 0.77,-0.103 2.185,-0.713 2.655,-1.386 0.647,-0.924 1.119,-1.72 1.359,-2.843 0.268,-1.236 0.323,-2.288 0.323,-3.557"
   style="fill:#ffffff;fill-rule:evenodd" /><path
   id="path355"
   d="m 209.74927,35.008 c 0,-4.957 0,-9.915 0,-14.872 0,-3.656 0.233,-8.343 -4.121,-9.492 -1.772,-0.468 -3.582,-0.364 -5.396,-0.364 -2.179,0 -4.358,0 -6.538,0 -8.566,0 -17.133,0 -25.699,0 -12.124,0 -24.248,0 -36.373,0 -13.22,0 -26.44,0 -39.659999,0 -11.854,0 -23.707,0 -35.561,0 -8.024,0 -16.049,0 -24.073,0 -1.808,0 -3.614,0 -5.421,0 -0.282,0 -0.563,0 -0.846,0 -1.247,0 -2.256,0.083 -3.474,0.344 -1.084,0.232 -1.847,0.713 -2.736,1.336 -0.58,0.407 -1.282,1.996 -1.371,2.663 -0.159,1.197 -0.304,2.394 -0.437,3.594 -0.197,1.776 -0.034,3.645 -0.034,5.428 0,4.71 -0.317,9.5 0.35,14.174 0.162,1.139 0.563,2.103 1.155,3.089 0.585,0.976 1.734,1.338 2.752,1.762 1.071,0.446 2.926,0.58 4.083,0.58 1.293,0 2.586,0 3.88,0 7.265,0 14.529,0 21.794,0 11.451,0 22.902,0 34.354,0 13.175,0 26.348999,0 39.522999,0 12.436,0 24.872,0 37.308,0 9.235,0 18.47,0 27.705,0 2.647,0 5.295,0 7.942,0 0.935,0 1.925,0.094 2.856,-0.009 1.236,-0.137 2.469,-0.282 3.701,-0.447 0.77,-0.103 2.185,-0.713 2.655,-1.386 0.647,-0.924 1.119,-1.72 1.359,-2.843 0.268,-1.236 0.323,-2.288 0.323,-3.557"
   style="fill:none;stroke:#ffffff;stroke-width:0.1212;stroke-linecap:square;stroke-miterlimit:10" /><path
   id="path357"
   d="m 209.74927,35.008 c 0,-4.957 0,-9.915 0,-14.872 0,-3.656 0.233,-8.343 -4.121,-9.492 -1.772,-0.468 -3.582,-0.364 -5.396,-0.364 -2.179,0 -4.358,0 -6.538,0 -8.566,0 -17.133,0 -25.699,0 -12.124,0 -24.248,0 -36.373,0 -13.22,0 -26.44,0 -39.659999,0 -11.854,0 -23.707,0 -35.561,0 -8.024,0 -16.049,0 -24.073,0 -1.808,0 -3.614,0 -5.421,0 -0.282,0 -0.563,0 -0.846,0 -1.247,0 -2.256,0.083 -3.474,0.344 -1.084,0.232 -1.847,0.713 -2.736,1.336 -0.58,0.407 -1.282,1.996 -1.371,2.663 -0.159,1.197 -0.304,2.394 -0.437,3.594 -0.197,1.776 -0.034,3.645 -0.034,5.428 0,4.71 -0.317,9.5 0.35,14.174 0.162,1.139 0.563,2.103 1.155,3.089 0.585,0.976 1.734,1.338 2.752,1.762 1.071,0.446 2.926,0.58 4.083,0.58 1.293,0 2.586,0 3.88,0 7.265,0 14.529,0 21.794,0 11.451,0 22.902,0 34.354,0 13.175,0 26.348999,0 39.522999,0 12.436,0 24.872,0 37.308,0 9.235,0 18.47,0 27.705,0 2.647,0 5.295,0 7.942,0 0.935,0 1.925,0.094 2.856,-0.009 1.236,-0.137 2.469,-0.282 3.701,-0.447 0.77,-0.103 2.185,-0.713 2.655,-1.386 0.647,-0.924 1.119,-1.72 1.359,-2.843 0.268,-1.236 0.323,-2.288 0.323,-3.557"
   style="fill:none;stroke:#ffffff;stroke-width:0.1212;stroke-linecap:square;stroke-miterlimit:10" /><path
   id="path359"
   d="m 209.74927,35.008 c 0,-4.957 0,-9.915 0,-14.872 0,-3.656 0.233,-8.343 -4.121,-9.492 -1.772,-0.468 -3.582,-0.364 -5.396,-0.364 -2.179,0 -4.358,0 -6.538,0 -8.566,0 -17.133,0 -25.699,0 -12.124,0 -24.248,0 -36.373,0 -13.22,0 -26.44,0 -39.659999,0 -11.854,0 -23.707,0 -35.561,0 -8.024,0 -16.049,0 -24.073,0 -1.808,0 -3.614,0 -5.421,0 -0.282,0 -0.563,0 -0.846,0 -1.247,0 -2.256,0.083 -3.474,0.344 -1.084,0.232 -1.847,0.713 -2.736,1.336 -0.58,0.407 -1.282,1.996 -1.371,2.663 -0.159,1.197 -0.304,2.394 -0.437,3.594 -0.197,1.776 -0.034,3.645 -0.034,5.428 0,4.71 -0.317,9.5 0.35,14.174 0.162,1.139 0.563,2.103 1.155,3.089 0.585,0.976 1.734,1.338 2.752,1.762 1.071,0.446 2.926,0.58 4.083,0.58 1.293,0 2.586,0 3.88,0 7.265,0 14.529,0 21.794,0 11.451,0 22.902,0 34.354,0 13.175,0 26.348999,0 39.522999,0 12.436,0 24.872,0 37.308,0 9.235,0 18.47,0 27.705,0 2.647,0 5.295,0 7.942,0 0.935,0 1.925,0.094 2.856,-0.009 1.236,-0.137 2.469,-0.282 3.701,-0.447 0.77,-0.103 2.185,-0.713 2.655,-1.386 0.647,-0.924 1.119,-1.72 1.359,-2.843 0.268,-1.236 0.323,-2.288 0.323,-3.557"
   style="fill:none;stroke:#000000;stroke-width:0.1212;stroke-linecap:square;stroke-miterlimit:10" /><path
   id="path361"
   d="m 340.28127,78.281 c 0,-2.332 0,-4.664 0,-6.996 0,-1.371 0,-2.743 0,-4.115 0,-0.592 0.178,-1.688 -0.484,-1.798 -0.382,-0.063 -2.924,-0.31 -3.044,0.107 -0.223,0.78 -0.229,1.367 -0.229,2.181 0,2.988 0,5.978 0,8.966 0,0.743 -0.265,2.214 0.606,2.504 0.667,0.222 1.404,0.121 2.102,0.121 0.785,0 0.934,-0.274 1.049,-0.97"
   style="fill:#ffffff;fill-rule:evenodd" /><path
   id="path363"
   d="m 340.28127,78.281 c 0,-2.332 0,-4.664 0,-6.996 0,-1.371 0,-2.743 0,-4.115 0,-0.592 0.178,-1.688 -0.484,-1.798 -0.382,-0.063 -2.924,-0.31 -3.044,0.107 -0.223,0.78 -0.229,1.367 -0.229,2.181 0,2.988 0,5.978 0,8.966 0,0.743 -0.265,2.214 0.606,2.504 0.667,0.222 1.404,0.121 2.102,0.121 0.785,0 0.934,-0.274 1.049,-0.97"
   style="fill:none;stroke:#000000;stroke-width:0.1212;stroke-linecap:square;stroke-miterlimit:10" /><path
   id="path365"
   d="m 316.52727,14.16 c -2.584,0.774 -5.497,0.492 -8.176,0.573 -3.052,0.092 -6.104,0.184 -9.156,0.275 2.959,0 5.919,0 8.878,0 1.91,0 3.82,0 5.73,0 1.068,0 1.726,-0.01 2.723,0.364 10e-4,-0.404 10e-4,-0.809 10e-4,-1.212"
   style="fill-rule:evenodd" /><path
   id="path367"
   d="m 316.52727,14.16 c -2.584,0.774 -5.497,0.492 -8.176,0.573 -3.052,0.092 -6.104,0.184 -9.156,0.275 2.959,0 5.919,0 8.878,0 1.91,0 3.82,0 5.73,0 1.068,0 1.726,-0.01 2.723,0.364 10e-4,-0.404 10e-4,-0.809 10e-4,-1.212"
   style="fill:none;stroke:#000000;stroke-width:0.1212;stroke-linecap:square;stroke-miterlimit:10" /><path
   id="path369"
   d="m 297.49827,15.008 c -0.344,-0.603 -0.33,-0.848 -1.015,-0.848 -0.333,0 -0.439,-0.094 -0.439,0.269 0,0.263 -0.159,0.572 -0.243,0.822 -0.332,0.996 0.954,2.036 0.485,3.03 0.404,-1.091 0.808,-2.182 1.212,-3.273"
   style="fill:#ffffff;fill-rule:evenodd" /><path
   id="path371"
   d="m 297.49827,15.008 c -0.344,-0.603 -0.33,-0.848 -1.015,-0.848 -0.333,0 -0.439,-0.094 -0.439,0.269 0,0.263 -0.159,0.572 -0.243,0.822 -0.332,0.996 0.954,2.036 0.485,3.03"
   style="fill:none;stroke:#000000;stroke-width:0.1212;stroke-linecap:square;stroke-miterlimit:10" /><path
   id="path373"
   d="m 266.35027,80.706 c 0,-0.352 0,-0.703 0,-1.055 0,-0.479 0.085,-0.521 -0.409,-0.521 -0.618,0 -1.236,0 -1.855,0 -0.997,0 -1.993,0 -2.989,0 -0.283,0 -0.566,0 -0.849,0 -0.426,0 -0.437,-0.025 -0.545,0.408 -0.139,0.556 -0.161,1.494 0.466,1.652 0.576,0.146 1.377,0 1.967,0 0.983,0 1.966,0 2.949,0 0.376,0 1.457,0.152 1.265,-0.484"
   style="fill:#ffffff;fill-rule:evenodd" /><path
   id="path375"
   d="m 266.35027,80.706 c 0,-0.352 0,-0.703 0,-1.055 0,-0.479 0.085,-0.521 -0.409,-0.521 -0.618,0 -1.236,0 -1.855,0 -0.997,0 -1.993,0 -2.989,0 -0.283,0 -0.566,0 -0.849,0 -0.426,0 -0.437,-0.025 -0.545,0.408 -0.139,0.556 -0.161,1.494 0.466,1.652 0.576,0.146 1.377,0 1.967,0 0.983,0 1.966,0 2.949,0 0.376,0 1.457,0.152 1.265,-0.484"
   style="fill:none;stroke:#000000;stroke-width:2.18179989;stroke-linecap:square;stroke-miterlimit:10" /><path
   id="path377"
   d="m 265.13727,80.827 c 0,-0.14 0.054,-0.971 -0.045,-0.971 -0.473,0 -0.947,0 -1.42,0 -0.638,0 -1.276,0 -1.915,0 -0.157,0 -0.99,-0.116 -1.104,0 -0.077,0.078 -0.002,0.971 0.045,0.971 0.473,0 0.947,0 1.42,0 1.007,0 2.013,0 3.019,0"
   style="fill:#ffffff;fill-rule:evenodd" /><path
   id="path379"
   d="m 265.13727,80.827 c -1.006,0 -2.013,0 -3.019,0 -0.456,0 -0.911,0 -1.367,0 -0.164,0 -0.195,-0.873 -0.099,-0.971 0.097,-0.098 0.804,0 0.936,0 0.694,0 1.389,0 2.083,0 0.456,0 0.911,0 1.367,0 0.222,0 0.099,0.77 0.099,0.971"
   style="fill:none;stroke:#ffffff;stroke-width:0.1212;stroke-linecap:square;stroke-miterlimit:10" /><path
   id="path381"
   d="m 277.86427,70.767 c 0,-0.796 0.224,-0.971 -0.503,-0.971 -0.773,0 -1.547,0 -2.32,0 -2.778,0 -5.557,0 -8.335,0 -5.542,0 -11.084,0 -16.626,0 -0.145,0 -0.953,-0.111 -1.061,0 -0.07,0.071 0.01,0.971 0.029,0.971 0.158,0 0.316,0 0.475,0 2.016,0 4.032,0 6.048,0 6.135,0 12.271,0 18.405,0 1.295,0 2.591,0 3.888,0"
   style="fill-rule:evenodd" /><path
   id="path383"
   d="m 277.86427,70.767 c -9.447,0 -18.895,0 -28.342,0 -0.153,0 -0.306,0 -0.458,0 -0.064,0 -0.117,-0.897 -0.045,-0.971 0.108,-0.111 0.916,0 1.061,0 2.298,0 4.596,0 6.895,0 6.022,0 12.044,0 18.067,0 0.773,0 1.546,0 2.32,0 0.726,0 0.502,0.175 0.502,0.971"
   style="fill:none;stroke:#000000;stroke-width:0.1212;stroke-linecap:square;stroke-miterlimit:10" />
</svg>