<?xml version="1.0" encoding="UTF-8" standalone="no"?>
<!-- Created with Inkscape (http://www.inkscape.org/) -->

<svg
   xmlns:dc="http://purl.org/dc/elements/1.1/"
   xmlns:cc="http://creativecommons.org/ns#"
   xmlns:rdf="http://www.w3.org/1999/02/22-rdf-syntax-ns#"
   xmlns:svg="http://www.w3.org/2000/svg"
   xmlns="http://www.w3.org/2000/svg"
   xmlns:sodipodi="http://sodipodi.sourceforge.net/DTD/sodipodi-0.dtd"
   xmlns:inkscape="http://www.inkscape.org/namespaces/inkscape"
   id="svg1"
   sodipodi:version="0.32"
   inkscape:version="0.47 r22583"
   width="80.000000pt"
   height="80.000000pt"
   sodipodi:docname="nicubunu_Abstract_person.svg"
   version="1.1">
  <metadata
     id="metadata16" />
  <defs
     id="defs3">
    <inkscape:perspective
       sodipodi:type="inkscape:persp3d"
       inkscape:vp_x="0 : 50 : 1"
       inkscape:vp_y="0 : 1000 : 0"
       inkscape:vp_z="100 : 50 : 1"
       inkscape:persp3d-origin="50 : 33.333333 : 1"
       id="perspective20" />
  </defs>
  <sodipodi:namedview
     id="base"
     pagecolor="#ffffff"
     bordercolor="#666666"
     borderopacity="1.0"
     inkscape:pageopacity="0.0"
     inkscape:pageshadow="2"
     inkscape:zoom="4"
     inkscape:cx="16.162476"
     inkscape:cy="54.676208"
     inkscape:window-width="1440"
     inkscape:window-height="825"
     inkscape:window-x="0"
     inkscape:window-y="24"
     showgrid="false"
     inkscape:window-maximized="1"
     inkscape:current-layer="svg1" />
  <path
     id="path861"
     d="m 55.90625,12.09375 c -10.2378,0 -18.53125,6.647978 -18.53125,14.84375 0,5.592709 3.91411,10.40581 9.625,12.9375 -7.5657,1.455956 -14.40925,3.966289 -18.46875,7.8125 -8.63004,11.454552 -5.4371,20.463474 -5.59375,22.09375 0.77274,0.866056 5.70534,4.191863 9.375,3.9375 C 31.94132,66.232856 34.09375,55.75 34.09375,55.75 c -0.46995,0.376214 -2.1705,14.506493 -1.625,18 -0.04946,0.0048 -0.10631,-0.03471 -0.15625,-0.03125 0.0019,0.03918 -0.0021,0.08598 0,0.125 0.39999,6.489862 3.65263,21.402188 5.0625,22.65625 13.81916,1.98336 27.02299,1.7151 41.46875,0.3125 0,0 0.40188,-3.805786 0.5,-4.71875 C 80.55017,88.028257 81.76579,81.958139 80.8125,77.625 80.90453,76.715672 80.9073,76.771374 81,75.84375 80.21117,64.801126 78.11754,57.305191 78.1875,57.46875 79.82398,62.272325 81,75.843751 81,75.84375 85.78168,75.029355 89.15582,74.195476 93.9375,71.5 c 1.56652,-1.630281 2.3414,-10.929778 -4.75,-23.59375 -2.98088,-5.323315 -11.94387,-8.281311 -22.21875,-9.125 4.51874,-2.708687 7.5,-6.980183 7.5,-11.84375 0,-0.05385 -0.03053,-0.102534 -0.03125,-0.15625 0.11722,-0.569837 0.34594,-1.336809 0.40625,-1.71875 -0.25673,-0.168902 -0.39719,-0.138336 -0.625,-0.25 -1.29449,-7.185304 -8.98034,-12.71875 -18.3125,-12.71875 z"
     style="fill:#000000;fill-opacity:0.5;fill-rule:evenodd;stroke-width:1pt" />
  <path
     style="fill:#d40000;fill-rule:evenodd;stroke:#000000;stroke-width:1.25000000000000000;stroke-linejoin:round;stroke-dasharray:none;fill-opacity:1"
     d="M 18.815381,66.311465 C 18.97203,64.68119 15.769036,55.67184 24.399078,44.217288 37.415368,31.884895 77.966373,31.743657 85.05778,44.40763 c 7.091407,12.663973 6.3193,21.99353 4.752781,23.623811 -4.781681,2.69548 -8.153493,3.509874 -12.935176,4.324269 0,0 -1.177675,-13.555204 -2.81415,-18.358779 -0.06997,-0.163561 2.025318,7.320618 2.81415,18.363242 -1.090983,10.917222 -2.181972,20.956596 -2.181972,20.956596 -14.445757,1.4026 -27.638299,1.676542 -41.457457,-0.306817 C 31.826092,91.755891 28.569868,76.850028 28.169873,70.360166 27.769878,62.867061 29.963002,52.268028 29.963002,52.268028 29.49305,52.644242 27.78103,66.766013 28.326527,70.25952 24.64242,70.617881 19.59864,67.189306 18.815381,66.311465 z"
     id="path828"
     sodipodi:nodetypes="ccccccccccccc" />
  <path
     style="fill:#d40000;fill-rule:evenodd;stroke:#000000;stroke-width:1.25000000000000000;stroke-linejoin:round;stroke-dasharray:none;fill-opacity:1"
     d="m 70.32947,23.44657 c 0,8.195774 -8.308947,14.847418 -18.546757,14.847418 -10.237804,0 -18.546757,-6.651644 -18.546757,-14.847418 0,-8.195773 8.308953,-14.847418 18.546757,-14.847418 10.23781,0 18.546757,6.651645 18.546757,14.847418 z"
     id="path827" />
  <path
     style="fill:#ffffff;fill-opacity:0.25;fill-rule:evenodd;stroke:none"
     d="M 51.511942,9.7194887 C 43.435157,7.0272269 24.409841,21.026988 39.486506,33.590876 48.640196,31.796035 31.050752,17.257821 51.511942,9.7194887 z"
     id="path830"
     sodipodi:nodetypes="ccc" />
  <path
     style="fill:#ffffff;fill-opacity:0.25;fill-rule:evenodd;stroke:none"
     d="m 42.178768,37.180559 c -0.89742,-0.179484 -12.922856,1.974325 -17.230476,7.897301 -3.589682,2.153809 -6.99988,12.384405 -5.564007,20.640673 1.794841,1.435873 5.205039,3.769167 6.10246,3.230715 C 30.5123,58.359684 13.640793,47.411153 42.178768,37.180559 z"
     id="path831"
     sodipodi:nodetypes="ccccc" />
  <path
     style="fill:#ffffff;fill-opacity:0.25;fill-rule:evenodd;stroke:none"
     d="m 30.153332,55.12897 c -3.589683,10.948531 -0.179484,30.512301 3.769167,36.973728 3.94865,1.256389 9.512658,1.794842 10.769046,1.435874 C 45.76845,84.384881 29.794364,85.64127 30.153332,55.12897 z"
     id="path832"
     sodipodi:nodetypes="cccc" />
  <path
     style="fill:#000000;fill-opacity:0.25;fill-rule:evenodd;stroke:none"
     d="M 52.588846,37.539527 C 67.844996,33.411393 63.896346,17.078338 70.716742,21.56544 70.17829,24.975638 68.02448,37.001075 52.588846,37.539527 z"
     id="path833"
     sodipodi:nodetypes="ccc" />
  <path
     style="fill:#000000;fill-opacity:0.25;fill-rule:evenodd;stroke:none"
     d="m 81.306305,70.564605 c 0,0 8.256269,-1.615357 8.615238,-3.230714 1.974326,-6.281945 -3.410198,-21.179126 -5.922976,-23.691904 -12.20492,-4.307619 13.281825,24.948292 -2.692262,26.922618 z"
     id="path834"
     sodipodi:nodetypes="cccc" />
  <path
     style="fill:#000000;fill-opacity:0.25;fill-rule:evenodd;stroke:none"
     d="m 64.973251,93.538572 c 0,0 7.897301,0.538452 8.794721,-0.897421 0.897421,-1.435873 5.025556,-13.999761 2.512778,-20.102221 -8.25627,-6.820396 3.05123,20.820158 -11.307499,20.999642 z"
     id="path835"
     sodipodi:nodetypes="cccc" />
  <metadata
     id="metadata18">
    <rdf:RDF>
      <cc:Work
         rdf:about="">
        <dc:title>Clipart by Nicu Buculei - head1</dc:title>
        <dc:rights>
          <cc:Agent>
            <dc:title>Nicu Buculei</dc:title>
          </cc:Agent>
        </dc:rights>
        <dc:type
           rdf:resource="http://purl.org/dc/dcmitype/StillImage" />
        <cc:license
           rdf:resource="http://web.resource.org/cc/PublicDomain" />
        <dc:format>image/svg+xml</dc:format>
      </cc:Work>
      <cc:License
         rdf:about="http://web.resource.org/cc/PublicDomain">
        <cc:permits
           rdf:resource="http://web.resource.org/cc/Reproduction" />
        <cc:permits
           rdf:resource="http://web.resource.org/cc/Distribution" />
        <cc:permits
           rdf:resource="http://web.resource.org/cc/DerivativeWorks" />
      </cc:License>
    </rdf:RDF>
  </metadata>
</svg>
