<?xml version="1.0" encoding="UTF-8" standalone="no"?>
<!-- Created with Inkscape (http://www.inkscape.org/) -->

<svg
   xmlns:dc="http://purl.org/dc/elements/1.1/"
   xmlns:cc="http://creativecommons.org/ns#"
   xmlns:rdf="http://www.w3.org/1999/02/22-rdf-syntax-ns#"
   xmlns:svg="http://www.w3.org/2000/svg"
   xmlns="http://www.w3.org/2000/svg"
   xmlns:sodipodi="http://sodipodi.sourceforge.net/DTD/sodipodi-0.dtd"
   xmlns:inkscape="http://www.inkscape.org/namespaces/inkscape"
   version="1.0"
   width="993.7254"
   height="310.89276"
   id="svg2160"
   inkscape:version="0.47 r22583"
   sodipodi:docname="bobocal_Yellow_Bus.svg">
  <metadata
     id="metadata35">
    <rdf:RDF>
      <cc:Work
         rdf:about="">
        <dc:format>image/svg+xml</dc:format>
        <dc:type
           rdf:resource="http://purl.org/dc/dcmitype/StillImage" />
      </cc:Work>
    </rdf:RDF>
  </metadata>
  <sodipodi:namedview
     pagecolor="#ffffff"
     bordercolor="#666666"
     borderopacity="1"
     objecttolerance="10"
     gridtolerance="10"
     guidetolerance="10"
     inkscape:pageopacity="0"
     inkscape:pageshadow="2"
     inkscape:window-width="1440"
     inkscape:window-height="825"
     id="namedview33"
     showgrid="false"
     inkscape:zoom="0.53837811"
     inkscape:cx="129.09143"
     inkscape:cy="155.44638"
     inkscape:window-x="0"
     inkscape:window-y="24"
     inkscape:window-maximized="1"
     inkscape:current-layer="svg2160" />
  <defs
     id="defs2162">
    <inkscape:perspective
       sodipodi:type="inkscape:persp3d"
       inkscape:vp_x="0 : 155.44638 : 1"
       inkscape:vp_y="0 : 1000 : 0"
       inkscape:vp_z="993.7254 : 155.44638 : 1"
       inkscape:persp3d-origin="496.8627 : 103.63092 : 1"
       id="perspective37" />
  </defs>
  <path
     d="m 0.579209,310.31354 992.566981,0"
     style="fill:none;stroke:#000000;stroke-width:1.15841722px;stroke-linecap:butt;stroke-linejoin:miter;stroke-opacity:1"
     id="path2175" />
  <path
     d="m 271.59994,261.68034 a 35.70126,35.70126 0 1 1 5.03857,-30.40023 l -34.29128,9.93419 z"
     style="opacity:0;fill:#e6e6e6;fill-opacity:1;fill-rule:nonzero;stroke:none"
     id="path2177" />
  <path
     d="m 57.316194,0.88996 c -19.898893,0 -35.90625,15.88048 -35.90625,35.59375 l 0,205.6875 c 0,19.71328 16.007361,35.59375 35.90625,35.59375 l 886.343746,0 c 19.89889,0 35.90625,-15.88045 35.90625,-35.59375 l 0,-205.6875 c 0,-0.61604 -4e-4,-1.23556 -0.031,-1.84375 l 0,150.375 c -8e-4,1.76879 -1.4188,3.1875 -3.1875,3.1875 l -17.18755,0 c -1.76878,2e-5 -3.21875,-1.41871 -3.21875,-3.1875 l 0,-152.4375 c 0,-1.76878 1.44996,-3.1875 3.21875,-3.1875 l 17.18755,0 c 1.245,0 2.2858,0.71415 2.8125,1.75 -2.5853,-17.1631 -17.43446,-30.25 -35.50005,-30.25 l -886.343746,0 z m 756.937496,20.59375 51.875,0 c 0.6363,0 1.24456,0.0655 1.84375,0.1875 0.58944,0.11999 1.17685,0.30487 1.71875,0.53125 0.008,0.004 0.0228,-0.004 0.0312,0 0.54188,0.22841 1.04884,0.52038 1.53125,0.84375 0.97724,0.65909 1.84091,1.52276 2.5,2.5 0.32337,0.48241 0.61534,0.98937 0.84375,1.53125 0.004,0.008 -0.004,0.0228 0,0.0312 0.22638,0.5419 0.41126,1.12932 0.53125,1.71875 0.0274,0.13459 0.0409,0.27053 0.0625,0.40625 0.6918,-4.39573 4.46629,-7.74999 9.0625,-7.75 l 51.875,0 c 5.09036,0 9.18751,4.09717 9.1875,9.1875 l 0,218.875 c 10e-6,5.09032 -4.09715,9.18748 -9.1875,9.1875 l -51.875,0 c -4.61938,-3e-5 -8.42984,-3.35279 -9.09375,-7.78125 -0.0356,0.20732 -0.0475,0.42004 -0.0937,0.625 -0.11998,0.53177 -0.26141,1.07062 -0.46875,1.5625 -0.11056,0.26229 -0.24149,0.53219 -0.375,0.78125 -0.007,0.0122 -0.0246,0.019 -0.0312,0.0312 -0.1411,0.26041 -0.27273,0.50569 -0.4375,0.75 -0.49432,0.73293 -1.10115,1.37671 -1.78125,1.9375 -1.1335,0.93466 -2.50201,1.60131 -4,1.90625 -0.59919,0.12198 -1.20746,0.1875 -1.84375,0.1875 l -51.875,0 c -0.62564,0 -1.25388,-0.0695 -1.84375,-0.1875 -0.01,-0.002 -0.0215,0.002 -0.0312,0 -0.88929,-0.18103 -1.7256,-0.48973 -2.5,-0.90625 -0.008,-0.004 -0.0236,0.004 -0.0312,0 -0.51349,-0.27823 -0.98946,-0.63258 -1.4375,-1 -0.006,-0.005 -0.0253,0.005 -0.0312,0 -0.45977,-0.37912 -0.84085,-0.78918 -1.21875,-1.25 -0.18693,-0.2267 -0.36648,-0.44319 -0.53125,-0.6875 -0.17,-0.25206 -0.32398,-0.51209 -0.46875,-0.78125 -0.1411,-0.2604 -0.25909,-0.50627 -0.375,-0.78125 -0.2357,-0.55917 -0.40921,-1.14004 -0.53125,-1.75 -0.11802,-0.58987 -0.1875,-1.21811 -0.1875,-1.84375 l 0,-218.875 c 0,-0.6363 0.0655,-1.24456 0.1875,-1.84375 0.063,-0.30935 0.12571,-0.60923 0.21875,-0.90625 0.0863,-0.27867 0.20118,-0.54604 0.3125,-0.8125 0.004,-0.009 -0.004,-0.0225 0,-0.0312 0.11591,-0.27498 0.2339,-0.52085 0.375,-0.78125 0.14507,-0.26773 0.29868,-0.53056 0.46875,-0.78125 0.16477,-0.24431 0.34432,-0.4608 0.53125,-0.6875 0.75635,-0.91726 1.66226,-1.68366 2.71875,-2.25 0.2604,-0.1411 0.50627,-0.25909 0.78125,-0.375 0.49188,-0.20734 1.03073,-0.34877 1.5625,-0.46875 0.64991,-0.14478 1.33643,-0.25 2.03125,-0.25 z m -676.84375,0.5625 102.9375,0 c 5.09035,0 9.1875,4.09716 9.1875,9.1875 l 0,66.3125 c -1e-5,5.09033 -4.09716,9.1875 -9.1875,9.1875 l -102.9375,0 c -5.09034,1e-5 -9.1875,-4.09716 -9.1875,-9.1875 l 0,-66.3125 c 0,-5.09036 4.09716,-9.1875 9.1875,-9.1875 z m 136.15625,0 102.96875,0 c 5.09033,0 9.1875,4.09716 9.1875,9.1875 l 0,66.3125 c 10e-6,5.09033 -4.09716,9.1875 -9.1875,9.1875 l -102.96875,0 c -5.09032,1e-5 -9.1875,-4.09716 -9.1875,-9.1875 l 0,-66.3125 c 0,-5.09036 4.09716,-9.1875 9.1875,-9.1875 z m 136.15625,0 102.96875,0 c 5.09036,0 9.1875,4.09716 9.1875,9.1875 l 0,66.3125 c 10e-6,5.09033 -4.09716,9.1875 -9.1875,9.1875 l -102.96875,0 c -5.09032,1e-5 -9.1875,-4.09716 -9.1875,-9.1875 l 0,-66.3125 c 0,-5.09036 4.09716,-9.1875 9.1875,-9.1875 z m 136.1875,0 102.9375,0 c 5.09033,0 9.1875,4.09716 9.1875,9.1875 l 0,66.3125 c -2e-5,5.09033 -4.09716,9.1875 -9.1875,9.1875 l -102.9375,0 c -5.09036,1e-5 -9.21875,-4.09716 -9.21875,-9.1875 l 0,-66.3125 c 0,-5.09036 4.12841,-9.1875 9.21875,-9.1875 z m 136.15625,0 102.96875,0 c 5.09033,0 9.1875,4.09716 9.1875,9.1875 l 0,66.3125 c -2e-5,5.09033 -4.09716,9.1875 -9.1875,9.1875 l -102.96875,0 c -5.09036,1e-5 -9.1875,-4.09716 -9.1875,-9.1875 l 0,-66.3125 c 0,-5.09036 4.09716,-9.1875 9.1875,-9.1875 z"
     style="fill:#d40000;fill-opacity:1;fill-rule:nonzero;stroke:#000000;stroke-width:1.77992164999999991;stroke-linecap:round;stroke-linejoin:round;stroke-miterlimit:4;stroke-opacity:1;stroke-dashoffset:0"
     id="rect3179" />
  <path
     d="m 148.78093,276.71889 a 59.310155,59.310155 0 1 1 114.57843,0"
     style="fill:#4d4d4d;fill-opacity:1;fill-rule:nonzero;stroke:#000000;stroke-width:4.38307095;stroke-linecap:round;stroke-linejoin:round;stroke-miterlimit:4;stroke-opacity:1;stroke-dasharray:none;stroke-dashoffset:0"
     id="path3167" />
  <path
     d="m 255.01541,261.36828 a 48.945274,48.945274 0 1 1 -97.89053,0 48.945274,48.945274 0 1 1 97.89053,0 z"
     style="fill:#000000;fill-opacity:1;fill-rule:nonzero;stroke:none"
     id="path3152" />
  <path
     d="m 227.37573,261.36827 a 21.305589,21.305589 0 1 1 -42.61118,0 21.305589,21.305589 0 1 1 42.61118,0 z"
     style="fill:#cccccc;fill-opacity:1;fill-rule:nonzero;stroke:none"
     id="path3156" />
  <path
     d="m 797.25771,261.68034 a 35.70126,35.70126 0 1 1 5.03857,-30.40023 L 768.005,241.2143 z"
     style="opacity:0;fill:#e6e6e6;fill-opacity:1;fill-rule:nonzero;stroke:none"
     id="path3169" />
  <path
     d="m 674.4387,276.71889 a 59.310155,59.310155 0 1 1 114.57843,0"
     style="fill:#4d4d4d;fill-opacity:1;fill-rule:nonzero;stroke:#000000;stroke-width:4.38307095;stroke-linecap:round;stroke-linejoin:round;stroke-miterlimit:4;stroke-opacity:1;stroke-dasharray:none;stroke-dashoffset:0"
     id="path3171" />
  <path
     d="m 780.67318,261.36828 a 48.945274,48.945274 0 1 1 -97.89053,0 48.945274,48.945274 0 1 1 97.89053,0 z"
     style="fill:#000000;fill-opacity:1;fill-rule:nonzero;stroke:none"
     id="path3173" />
  <path
     d="m 753.03349,261.36827 a 21.305589,21.305589 0 1 1 -42.61118,0 21.305589,21.305589 0 1 1 42.61118,0 z"
     style="fill:#cccccc;fill-opacity:1;fill-rule:nonzero;stroke:none"
     id="path3175" />
  <rect
     width="121.33695"
     height="84.691566"
     rx="9.1883392"
     ry="9.1883392"
     x="128.21196"
     y="22.056341"
     style="opacity:0.6;fill:#cccccc;fill-opacity:1;fill-rule:nonzero;stroke:#000000;stroke-width:1.77165353;stroke-linecap:round;stroke-linejoin:round;stroke-miterlimit:4;stroke-opacity:1;stroke-dasharray:none;stroke-dashoffset:0"
     id="rect3181" />
  <rect
     width="23.578625"
     height="158.81502"
     rx="3.1927617"
     ry="3.1927617"
     x="955.95294"
     y="29.390692"
     style="opacity:0.6;fill:#cccccc;fill-opacity:1;fill-rule:nonzero;stroke:#000000;stroke-width:1.00873768;stroke-linecap:round;stroke-linejoin:round;stroke-miterlimit:4;stroke-opacity:1;stroke-dasharray:none;stroke-dashoffset:0"
     id="rect4170" />
  <rect
     width="40.307938"
     height="41.459484"
     rx="4.8945279"
     ry="5.6405392"
     x="948.88666"
     y="241.21436"
     style="fill:#280b0b;fill-opacity:1;fill-rule:nonzero;stroke:#000000;stroke-width:1.77165353;stroke-linecap:round;stroke-linejoin:round;stroke-miterlimit:4;stroke-opacity:1;stroke-dasharray:none;stroke-dashoffset:0"
     id="rect4176" />
  <rect
     width="114.01376"
     height="41.459484"
     rx="4.8945279"
     ry="5.6405392"
     x="15.47144"
     y="241.21436"
     style="fill:#280b0b;fill-opacity:1;fill-rule:nonzero;stroke:#000000;stroke-width:1.77165353;stroke-linecap:round;stroke-linejoin:round;stroke-miterlimit:4;stroke-opacity:1;stroke-dasharray:none;stroke-dashoffset:0"
     id="rect4178" />
  <rect
     width="161.23149"
     height="78.312439"
     rx="7.9438462"
     ry="7.9438462"
     x="467.86392"
     y="193.99652"
     style="fill:none;stroke:#000000;stroke-width:1.77165353;stroke-linecap:round;stroke-linejoin:round;stroke-miterlimit:4;stroke-opacity:1;stroke-dasharray:none;stroke-dashoffset:0"
     id="rect4184" />
  <rect
     width="161.23149"
     height="78.312439"
     rx="7.9438462"
     ry="7.9438462"
     x="298.57086"
     y="193.99652"
     style="fill:none;stroke:#000000;stroke-width:1.77165353;stroke-linecap:round;stroke-linejoin:round;stroke-miterlimit:4;stroke-opacity:1;stroke-dasharray:none;stroke-dashoffset:0"
     id="rect4186" />
  <rect
     width="121.33695"
     height="84.691566"
     rx="9.1883392"
     ry="9.1883392"
     x="264.37671"
     y="22.056341"
     style="opacity:0.6;fill:#cccccc;fill-opacity:1;fill-rule:nonzero;stroke:#000000;stroke-width:1.77165353;stroke-linecap:round;stroke-linejoin:round;stroke-miterlimit:4;stroke-opacity:1;stroke-dasharray:none;stroke-dashoffset:0"
     id="rect2197" />
  <rect
     width="121.33695"
     height="84.691566"
     rx="9.1883392"
     ry="9.1883392"
     x="400.54144"
     y="22.056341"
     style="opacity:0.6;fill:#cccccc;fill-opacity:1;fill-rule:nonzero;stroke:#000000;stroke-width:1.77165353;stroke-linecap:round;stroke-linejoin:round;stroke-miterlimit:4;stroke-opacity:1;stroke-dasharray:none;stroke-dashoffset:0"
     id="rect2199" />
  <rect
     width="121.33695"
     height="84.691566"
     rx="9.1883392"
     ry="9.1883392"
     x="536.70624"
     y="22.056341"
     style="opacity:0.6;fill:#cccccc;fill-opacity:1;fill-rule:nonzero;stroke:#000000;stroke-width:1.77165353;stroke-linecap:round;stroke-linejoin:round;stroke-miterlimit:4;stroke-opacity:1;stroke-dasharray:none;stroke-dashoffset:0"
     id="rect2201" />
  <rect
     width="121.33695"
     height="84.691566"
     rx="9.1883392"
     ry="9.1883392"
     x="672.87091"
     y="21.495337"
     style="opacity:0.6;fill:#cccccc;fill-opacity:1;fill-rule:nonzero;stroke:#000000;stroke-width:1.77165353;stroke-linecap:round;stroke-linejoin:round;stroke-miterlimit:4;stroke-opacity:1;stroke-dasharray:none;stroke-dashoffset:0"
     id="rect2203" />
  <g
     transform="translate(-31.746579,-366.98477)"
     id="g2378"
     style="fill:#d40000;fill-opacity:1">
    <g
       id="g2370"
       style="fill:#d40000;fill-opacity:1">
      <path
         d="m 915.98701,388.48039 c -5.09034,0 -9.1875,4.09714 -9.1875,9.1875 l 0,218.875 c 0,5.09034 4.09714,9.18747 9.1875,9.1875 l 51.875,0 c 5.09034,0 9.18751,-4.09718 9.1875,-9.1875 l 0,-218.875 c 0,-5.09034 -4.09714,-9.1875 -9.1875,-9.1875 l -51.875,0 z m 8.0625,9.21875 36.90625,0 c 5.09037,0 9.1875,4.09716 9.1875,9.1875 l 0,112.90625 c 10e-6,5.09031 -4.09716,9.1875 -9.1875,9.1875 l -36.90625,0 c -5.09036,2e-5 -9.1875,-4.09716 -9.1875,-9.1875 l 0,-112.90625 c 0,-5.09032 4.09716,-9.1875 9.1875,-9.1875 z"
         style="fill:#d40000;fill-opacity:1;fill-rule:nonzero;stroke:#000000;stroke-width:1.77165353000000003;stroke-linecap:round;stroke-linejoin:round;stroke-miterlimit:4;stroke-opacity:1;stroke-dasharray:none;stroke-dashoffset:0"
         id="path2351" />
      <rect
         width="55.279369"
         height="131.2885"
         rx="9.1883392"
         ry="9.1883392"
         x="914.87238"
         y="397.70074"
         style="opacity:0.59999999999999998;fill:#d40000;fill-opacity:1;fill-rule:nonzero;stroke:#000000;stroke-width:1.77165353000000003;stroke-linecap:round;stroke-linejoin:round;stroke-miterlimit:4;stroke-opacity:1;stroke-dasharray:none;stroke-dashoffset:0"
         id="rect2353" />
    </g>
    <g
       id="g2374"
       style="fill:#d40000;fill-opacity:1">
      <path
         d="m 845.9886,388.48039 c -5.09034,0 -9.1875,4.09714 -9.1875,9.1875 l 0,218.875 c 0,5.09034 4.09714,9.18747 9.1875,9.1875 l 51.875,0 c 5.09034,0 9.18751,-4.09718 9.1875,-9.1875 l 0,-218.875 c 0,-5.09034 -4.09714,-9.1875 -9.1875,-9.1875 l -51.875,0 z m 8.0625,9.21875 36.90625,0 c 5.09037,0 9.1875,4.09716 9.1875,9.1875 l 0,112.90625 c 10e-6,5.09031 -4.09716,9.1875 -9.1875,9.1875 l -36.90625,0 c -5.09036,2e-5 -9.1875,-4.09716 -9.1875,-9.1875 l 0,-112.90625 c 0,-5.09032 4.09716,-9.1875 9.1875,-9.1875 z"
         style="fill:#d40000;fill-opacity:1;fill-rule:nonzero;stroke:#000000;stroke-width:1.77165353000000003;stroke-linecap:round;stroke-linejoin:round;stroke-miterlimit:4;stroke-opacity:1;stroke-dasharray:none;stroke-dashoffset:0"
         id="path2284" />
      <rect
         width="55.279369"
         height="131.2885"
         rx="9.1883392"
         ry="9.1883392"
         x="844.87396"
         y="397.70074"
         style="opacity:0.59999999999999998;fill:#d40000;fill-opacity:1;fill-rule:nonzero;stroke:#000000;stroke-width:1.77165353000000003;stroke-linecap:round;stroke-linejoin:round;stroke-miterlimit:4;stroke-opacity:1;stroke-dasharray:none;stroke-dashoffset:0"
         id="rect2286" />
    </g>
  </g>
</svg>
